<svg xmlns="http://www.w3.org/2000/svg" xmlns:xlink="http://www.w3.org/1999/xlink" width="300" zoomAndPan="magnify" viewBox="0 0 224.87999 37.5" height="50" preserveAspectRatio="xMidYMid meet" version="1.0"><defs><g/><clipPath id="21786e6502"><path d="M 1.421875 0 L 223.339844 0 L 223.339844 37.007812 L 1.421875 37.007812 Z M 1.421875 0 " clip-rule="nonzero"/></clipPath><clipPath id="4db8955309"><path d="M 5.121094 3.699219 L 219.757812 3.699219 L 219.757812 33.304688 L 5.121094 33.304688 Z M 5.121094 3.699219 " clip-rule="nonzero"/></clipPath><clipPath id="b94be3e175"><path d="M 8.082031 3.699219 L 216.796875 3.699219 C 218.433594 3.699219 219.757812 5.027344 219.757812 6.660156 L 219.757812 30.34375 C 219.757812 31.980469 218.433594 33.304688 216.796875 33.304688 L 8.082031 33.304688 C 6.445312 33.304688 5.121094 31.980469 5.121094 30.34375 L 5.121094 6.660156 C 5.121094 5.027344 6.445312 3.699219 8.082031 3.699219 " clip-rule="nonzero"/></clipPath></defs><g clip-path="url(#21786e6502)"><path fill="#ffffff" d="M 1.421875 0 L 223.460938 0 L 223.460938 44.40625 L 1.421875 44.40625 Z M 1.421875 0 " fill-opacity="1" fill-rule="nonzero"/><path fill="#ffffff" d="M 1.421875 0 L 223.460938 0 L 223.460938 37.007812 L 1.421875 37.007812 Z M 1.421875 0 " fill-opacity="1" fill-rule="nonzero"/><path fill="#545454" d="M 1.421875 0 L 223.460938 0 L 223.460938 37.007812 L 1.421875 37.007812 Z M 1.421875 0 " fill-opacity="1" fill-rule="nonzero"/></g><g clip-path="url(#4db8955309)"><g clip-path="url(#b94be3e175)"><path stroke-linecap="butt" transform="matrix(0.740132, 0, 0, 0.740132, 5.120916, 3.700659)" fill="none" stroke-linejoin="miter" d="M 4.000796 -0.00194557 L 285.997752 -0.00194557 C 288.209141 -0.00194557 289.998308 1.792499 289.998308 3.99861 L 289.998308 35.997778 C 289.998308 38.209167 288.209141 39.998334 285.997752 39.998334 L 4.000796 39.998334 C 1.789407 39.998334 0.000240297 38.209167 0.000240297 35.997778 L 0.000240297 3.99861 C 0.000240297 1.792499 1.789407 -0.00194557 4.000796 -0.00194557 " stroke="#ffffff" stroke-width="8" stroke-opacity="1" stroke-miterlimit="4"/></g></g><g fill="#ffffff" fill-opacity="1"><g transform="translate(9.070741, 13.777943)"><g><path d="M 1.875 0.0625 C 1.582031 0.0625 1.320312 0.0234375 1.09375 -0.046875 C 0.863281 -0.117188 0.671875 -0.210938 0.515625 -0.328125 C 0.367188 -0.453125 0.253906 -0.582031 0.171875 -0.71875 L 0.625 -1.28125 L 0.703125 -1.28125 C 0.828125 -1.09375 0.988281 -0.941406 1.1875 -0.828125 C 1.382812 -0.710938 1.613281 -0.65625 1.875 -0.65625 C 2.09375 -0.65625 2.257812 -0.703125 2.375 -0.796875 C 2.488281 -0.898438 2.546875 -1.03125 2.546875 -1.1875 C 2.546875 -1.289062 2.523438 -1.375 2.484375 -1.4375 C 2.453125 -1.507812 2.394531 -1.566406 2.3125 -1.609375 C 2.226562 -1.660156 2.113281 -1.707031 1.96875 -1.75 L 1.421875 -1.875 C 1.046875 -1.957031 0.765625 -2.097656 0.578125 -2.296875 C 0.390625 -2.503906 0.296875 -2.765625 0.296875 -3.078125 C 0.296875 -3.316406 0.351562 -3.523438 0.46875 -3.703125 C 0.59375 -3.890625 0.769531 -4.03125 1 -4.125 C 1.226562 -4.226562 1.5 -4.28125 1.8125 -4.28125 C 2.144531 -4.28125 2.425781 -4.238281 2.65625 -4.15625 C 2.882812 -4.070312 3.082031 -3.941406 3.25 -3.765625 L 2.828125 -3.203125 L 2.765625 -3.203125 C 2.640625 -3.328125 2.5 -3.421875 2.34375 -3.484375 C 2.1875 -3.546875 2.007812 -3.578125 1.8125 -3.578125 C 1.582031 -3.578125 1.40625 -3.535156 1.28125 -3.453125 C 1.164062 -3.367188 1.109375 -3.253906 1.109375 -3.109375 C 1.109375 -2.984375 1.148438 -2.878906 1.234375 -2.796875 C 1.328125 -2.722656 1.472656 -2.660156 1.671875 -2.609375 L 2.234375 -2.5 C 2.640625 -2.414062 2.9375 -2.269531 3.125 -2.0625 C 3.3125 -1.851562 3.40625 -1.582031 3.40625 -1.25 C 3.40625 -0.976562 3.347656 -0.742188 3.234375 -0.546875 C 3.117188 -0.359375 2.945312 -0.207031 2.71875 -0.09375 C 2.488281 0.0078125 2.207031 0.0625 1.875 0.0625 Z M 1.875 0.0625 "/></g></g><g transform="translate(12.702006, 13.777943)"><g><path d="M 3.15625 -1.40625 L 1.109375 -1.40625 C 1.128906 -1.132812 1.207031 -0.9375 1.34375 -0.8125 C 1.476562 -0.6875 1.660156 -0.625 1.890625 -0.625 C 2.078125 -0.625 2.222656 -0.65625 2.328125 -0.71875 C 2.441406 -0.789062 2.535156 -0.894531 2.609375 -1.03125 L 2.671875 -1.03125 L 3.203125 -0.6875 C 3.097656 -0.46875 2.941406 -0.285156 2.734375 -0.140625 C 2.523438 -0.00390625 2.242188 0.0625 1.890625 0.0625 C 1.554688 0.0625 1.269531 0 1.03125 -0.125 C 0.789062 -0.25 0.601562 -0.4375 0.46875 -0.6875 C 0.34375 -0.9375 0.28125 -1.238281 0.28125 -1.59375 C 0.28125 -1.957031 0.347656 -2.265625 0.484375 -2.515625 C 0.628906 -2.765625 0.816406 -2.945312 1.046875 -3.0625 C 1.273438 -3.1875 1.535156 -3.25 1.828125 -3.25 C 2.285156 -3.25 2.632812 -3.128906 2.875 -2.890625 C 3.113281 -2.648438 3.234375 -2.300781 3.234375 -1.84375 C 3.234375 -1.675781 3.226562 -1.546875 3.21875 -1.453125 Z M 2.46875 -1.9375 C 2.457031 -2.175781 2.398438 -2.347656 2.296875 -2.453125 C 2.191406 -2.566406 2.035156 -2.625 1.828125 -2.625 C 1.421875 -2.625 1.1875 -2.394531 1.125 -1.9375 Z M 2.46875 -1.9375 "/></g></g><g transform="translate(16.168477, 13.777943)"><g><path d="M 1.25 0.0625 C 1.039062 0.0625 0.859375 0.0234375 0.703125 -0.046875 C 0.554688 -0.128906 0.441406 -0.238281 0.359375 -0.375 C 0.285156 -0.519531 0.25 -0.695312 0.25 -0.90625 C 0.25 -1.09375 0.285156 -1.25 0.359375 -1.375 C 0.441406 -1.507812 0.566406 -1.617188 0.734375 -1.703125 C 0.910156 -1.785156 1.132812 -1.847656 1.40625 -1.890625 C 1.59375 -1.921875 1.734375 -1.953125 1.828125 -1.984375 C 1.929688 -2.023438 2 -2.066406 2.03125 -2.109375 C 2.070312 -2.160156 2.09375 -2.222656 2.09375 -2.296875 C 2.09375 -2.390625 2.054688 -2.460938 1.984375 -2.515625 C 1.910156 -2.578125 1.789062 -2.609375 1.625 -2.609375 C 1.445312 -2.609375 1.28125 -2.566406 1.125 -2.484375 C 0.96875 -2.410156 0.828125 -2.304688 0.703125 -2.171875 L 0.65625 -2.171875 L 0.3125 -2.6875 C 0.476562 -2.863281 0.675781 -3 0.90625 -3.09375 C 1.144531 -3.195312 1.398438 -3.25 1.671875 -3.25 C 2.085938 -3.25 2.390625 -3.160156 2.578125 -2.984375 C 2.773438 -2.804688 2.875 -2.550781 2.875 -2.21875 L 2.875 -0.828125 C 2.875 -0.691406 2.9375 -0.625 3.0625 -0.625 C 3.101562 -0.625 3.148438 -0.628906 3.203125 -0.640625 L 3.234375 -0.640625 L 3.296875 -0.078125 C 3.253906 -0.046875 3.191406 -0.0195312 3.109375 0 C 3.035156 0.0078125 2.953125 0.015625 2.859375 0.015625 C 2.660156 0.015625 2.507812 -0.0195312 2.40625 -0.09375 C 2.300781 -0.164062 2.222656 -0.28125 2.171875 -0.4375 L 2.109375 -0.4375 C 1.953125 -0.101562 1.664062 0.0625 1.25 0.0625 Z M 1.5 -0.53125 C 1.6875 -0.53125 1.832031 -0.59375 1.9375 -0.71875 C 2.050781 -0.84375 2.109375 -1.019531 2.109375 -1.25 L 2.109375 -1.5625 L 2.046875 -1.578125 C 2.003906 -1.535156 1.941406 -1.5 1.859375 -1.46875 C 1.785156 -1.445312 1.675781 -1.425781 1.53125 -1.40625 C 1.351562 -1.375 1.222656 -1.320312 1.140625 -1.25 C 1.066406 -1.1875 1.03125 -1.085938 1.03125 -0.953125 C 1.03125 -0.816406 1.070312 -0.710938 1.15625 -0.640625 C 1.238281 -0.566406 1.351562 -0.53125 1.5 -0.53125 Z M 1.5 -0.53125 "/></g></g><g transform="translate(19.530867, 13.777943)"><g><path d="M 0.453125 0 L 0.453125 -3.1875 L 1.234375 -3.1875 L 1.234375 -2.71875 L 1.296875 -2.703125 C 1.367188 -2.878906 1.46875 -3.007812 1.59375 -3.09375 C 1.726562 -3.175781 1.882812 -3.21875 2.0625 -3.21875 C 2.238281 -3.21875 2.375 -3.1875 2.46875 -3.125 L 2.34375 -2.4375 L 2.28125 -2.421875 C 2.226562 -2.441406 2.175781 -2.457031 2.125 -2.46875 C 2.070312 -2.476562 2.015625 -2.484375 1.953125 -2.484375 C 1.722656 -2.484375 1.550781 -2.40625 1.4375 -2.25 C 1.320312 -2.09375 1.265625 -1.835938 1.265625 -1.484375 L 1.265625 0 Z M 0.453125 0 "/></g></g><g transform="translate(22.031698, 13.777943)"><g><path d="M 1.859375 0.0625 C 1.546875 0.0625 1.269531 0 1.03125 -0.125 C 0.800781 -0.257812 0.617188 -0.445312 0.484375 -0.6875 C 0.347656 -0.9375 0.28125 -1.238281 0.28125 -1.59375 C 0.28125 -1.945312 0.347656 -2.242188 0.484375 -2.484375 C 0.617188 -2.734375 0.800781 -2.921875 1.03125 -3.046875 C 1.269531 -3.179688 1.539062 -3.25 1.84375 -3.25 C 2.519531 -3.25 2.953125 -3.003906 3.140625 -2.515625 L 2.59375 -2.125 L 2.53125 -2.125 C 2.457031 -2.269531 2.367188 -2.378906 2.265625 -2.453125 C 2.160156 -2.535156 2.019531 -2.578125 1.84375 -2.578125 C 1.613281 -2.578125 1.429688 -2.492188 1.296875 -2.328125 C 1.171875 -2.171875 1.109375 -1.925781 1.109375 -1.59375 C 1.109375 -1.269531 1.171875 -1.023438 1.296875 -0.859375 C 1.429688 -0.703125 1.617188 -0.625 1.859375 -0.625 C 2.035156 -0.625 2.179688 -0.671875 2.296875 -0.765625 C 2.421875 -0.859375 2.507812 -0.988281 2.5625 -1.15625 L 2.625 -1.171875 L 3.1875 -0.859375 C 3.101562 -0.585938 2.953125 -0.363281 2.734375 -0.1875 C 2.515625 -0.0195312 2.222656 0.0625 1.859375 0.0625 Z M 1.859375 0.0625 "/></g></g><g transform="translate(25.318918, 13.777943)"><g><path d="M 0.453125 0 L 0.453125 -4.46875 L 1.265625 -4.46875 L 1.265625 -2.765625 L 1.328125 -2.765625 C 1.429688 -2.921875 1.554688 -3.039062 1.703125 -3.125 C 1.859375 -3.207031 2.046875 -3.25 2.265625 -3.25 C 2.972656 -3.25 3.328125 -2.847656 3.328125 -2.046875 L 3.328125 0 L 2.53125 0 L 2.53125 -1.953125 C 2.53125 -2.171875 2.484375 -2.328125 2.390625 -2.421875 C 2.304688 -2.523438 2.171875 -2.578125 1.984375 -2.578125 C 1.765625 -2.578125 1.585938 -2.5 1.453125 -2.34375 C 1.328125 -2.195312 1.265625 -1.96875 1.265625 -1.65625 L 1.265625 0 Z M 0.453125 0 "/></g></g><g transform="translate(29.054265, 13.777943)"><g/></g><g transform="translate(30.450683, 13.777943)"><g><path d="M 3.390625 -4.234375 L 3.390625 -3.53125 L 2.171875 -3.53125 L 2.171875 0 L 1.328125 0 L 1.328125 -3.53125 L 0.109375 -3.53125 L 0.109375 -4.234375 Z M 3.390625 -4.234375 "/></g></g><g transform="translate(33.954738, 13.777943)"><g><path d="M 3.15625 -1.40625 L 1.109375 -1.40625 C 1.128906 -1.132812 1.207031 -0.9375 1.34375 -0.8125 C 1.476562 -0.6875 1.660156 -0.625 1.890625 -0.625 C 2.078125 -0.625 2.222656 -0.65625 2.328125 -0.71875 C 2.441406 -0.789062 2.535156 -0.894531 2.609375 -1.03125 L 2.671875 -1.03125 L 3.203125 -0.6875 C 3.097656 -0.46875 2.941406 -0.285156 2.734375 -0.140625 C 2.523438 -0.00390625 2.242188 0.0625 1.890625 0.0625 C 1.554688 0.0625 1.269531 0 1.03125 -0.125 C 0.789062 -0.25 0.601562 -0.4375 0.46875 -0.6875 C 0.34375 -0.9375 0.28125 -1.238281 0.28125 -1.59375 C 0.28125 -1.957031 0.347656 -2.265625 0.484375 -2.515625 C 0.628906 -2.765625 0.816406 -2.945312 1.046875 -3.0625 C 1.273438 -3.1875 1.535156 -3.25 1.828125 -3.25 C 2.285156 -3.25 2.632812 -3.128906 2.875 -2.890625 C 3.113281 -2.648438 3.234375 -2.300781 3.234375 -1.84375 C 3.234375 -1.675781 3.226562 -1.546875 3.21875 -1.453125 Z M 2.46875 -1.9375 C 2.457031 -2.175781 2.398438 -2.347656 2.296875 -2.453125 C 2.191406 -2.566406 2.035156 -2.625 1.828125 -2.625 C 1.421875 -2.625 1.1875 -2.394531 1.125 -1.9375 Z M 2.46875 -1.9375 "/></g></g><g transform="translate(37.421209, 13.777943)"><g><path d="M 0.453125 0 L 0.453125 -3.1875 L 1.234375 -3.1875 L 1.234375 -2.71875 L 1.296875 -2.703125 C 1.367188 -2.878906 1.46875 -3.007812 1.59375 -3.09375 C 1.726562 -3.175781 1.882812 -3.21875 2.0625 -3.21875 C 2.238281 -3.21875 2.375 -3.1875 2.46875 -3.125 L 2.34375 -2.4375 L 2.28125 -2.421875 C 2.226562 -2.441406 2.175781 -2.457031 2.125 -2.46875 C 2.070312 -2.476562 2.015625 -2.484375 1.953125 -2.484375 C 1.722656 -2.484375 1.550781 -2.40625 1.4375 -2.25 C 1.320312 -2.09375 1.265625 -1.835938 1.265625 -1.484375 L 1.265625 0 Z M 0.453125 0 "/></g></g><g transform="translate(39.92204, 13.777943)"><g><path d="M 0.453125 0 L 0.453125 -3.1875 L 1.234375 -3.1875 L 1.234375 -2.765625 L 1.296875 -2.75 C 1.398438 -2.914062 1.519531 -3.039062 1.65625 -3.125 C 1.789062 -3.207031 1.96875 -3.25 2.1875 -3.25 C 2.425781 -3.25 2.617188 -3.203125 2.765625 -3.109375 C 2.921875 -3.015625 3.03125 -2.875 3.09375 -2.6875 L 3.15625 -2.6875 C 3.25 -2.875 3.375 -3.015625 3.53125 -3.109375 C 3.6875 -3.203125 3.878906 -3.25 4.109375 -3.25 C 4.773438 -3.25 5.109375 -2.878906 5.109375 -2.140625 L 5.109375 0 L 4.3125 0 L 4.3125 -2.046875 C 4.3125 -2.234375 4.269531 -2.367188 4.1875 -2.453125 C 4.113281 -2.535156 4 -2.578125 3.84375 -2.578125 C 3.40625 -2.578125 3.1875 -2.28125 3.1875 -1.6875 L 3.1875 0 L 2.375 0 L 2.375 -2.046875 C 2.375 -2.234375 2.335938 -2.367188 2.265625 -2.453125 C 2.191406 -2.535156 2.078125 -2.578125 1.921875 -2.578125 C 1.710938 -2.578125 1.550781 -2.503906 1.4375 -2.359375 C 1.320312 -2.222656 1.265625 -2.003906 1.265625 -1.703125 L 1.265625 0 Z M 0.453125 0 "/></g></g><g transform="translate(45.438326, 13.777943)"><g><path d="M 0.8125 0.03125 C 0.707031 0.03125 0.613281 0.0078125 0.53125 -0.03125 C 0.457031 -0.0703125 0.398438 -0.128906 0.359375 -0.203125 C 0.316406 -0.273438 0.296875 -0.359375 0.296875 -0.453125 C 0.296875 -0.546875 0.316406 -0.628906 0.359375 -0.703125 C 0.398438 -0.773438 0.457031 -0.832031 0.53125 -0.875 C 0.613281 -0.914062 0.707031 -0.9375 0.8125 -0.9375 C 0.914062 -0.9375 1.003906 -0.914062 1.078125 -0.875 C 1.160156 -0.832031 1.222656 -0.773438 1.265625 -0.703125 C 1.304688 -0.628906 1.328125 -0.546875 1.328125 -0.453125 C 1.328125 -0.316406 1.28125 -0.203125 1.1875 -0.109375 C 1.09375 -0.015625 0.96875 0.03125 0.8125 0.03125 Z M 0.8125 -2.25 C 0.707031 -2.25 0.613281 -2.269531 0.53125 -2.3125 C 0.457031 -2.351562 0.398438 -2.410156 0.359375 -2.484375 C 0.316406 -2.554688 0.296875 -2.640625 0.296875 -2.734375 C 0.296875 -2.828125 0.316406 -2.910156 0.359375 -2.984375 C 0.398438 -3.054688 0.457031 -3.113281 0.53125 -3.15625 C 0.613281 -3.195312 0.707031 -3.21875 0.8125 -3.21875 C 0.914062 -3.21875 1.003906 -3.195312 1.078125 -3.15625 C 1.160156 -3.113281 1.222656 -3.054688 1.265625 -2.984375 C 1.304688 -2.910156 1.328125 -2.828125 1.328125 -2.734375 C 1.328125 -2.597656 1.28125 -2.484375 1.1875 -2.390625 C 1.09375 -2.296875 0.96875 -2.25 0.8125 -2.25 Z M 0.8125 -2.25 "/></g></g><g transform="translate(47.071817, 13.777943)"><g/></g><g transform="translate(48.468235, 13.777943)"><g><path d="M 2.1875 -4.234375 C 2.488281 -4.234375 2.742188 -4.175781 2.953125 -4.0625 C 3.171875 -3.945312 3.332031 -3.789062 3.4375 -3.59375 C 3.550781 -3.394531 3.609375 -3.164062 3.609375 -2.90625 C 3.609375 -2.632812 3.550781 -2.398438 3.4375 -2.203125 C 3.332031 -2.003906 3.171875 -1.847656 2.953125 -1.734375 C 2.742188 -1.628906 2.488281 -1.578125 2.1875 -1.578125 L 1.390625 -1.578125 L 1.390625 0 L 0.546875 0 L 0.546875 -4.234375 Z M 2.078125 -2.234375 C 2.535156 -2.234375 2.765625 -2.457031 2.765625 -2.90625 C 2.765625 -3.34375 2.535156 -3.5625 2.078125 -3.5625 L 1.390625 -3.5625 L 1.390625 -2.234375 Z M 2.078125 -2.234375 "/></g></g><g transform="translate(52.330791, 13.777943)"><g><path d="M 1.328125 0.0625 C 1.035156 0.0625 0.8125 -0.015625 0.65625 -0.171875 C 0.507812 -0.328125 0.4375 -0.5625 0.4375 -0.875 L 0.4375 -4.46875 L 1.234375 -4.46875 L 1.234375 -0.90625 C 1.234375 -0.71875 1.316406 -0.625 1.484375 -0.625 C 1.523438 -0.625 1.570312 -0.628906 1.625 -0.640625 L 1.671875 -0.625 L 1.75 -0.015625 C 1.695312 0.00390625 1.632812 0.0195312 1.5625 0.03125 C 1.488281 0.0507812 1.410156 0.0625 1.328125 0.0625 Z M 1.328125 0.0625 "/></g></g><g transform="translate(54.16377, 13.777943)"><g><path d="M 1.453125 0.0625 C 1.097656 0.0625 0.832031 -0.0351562 0.65625 -0.234375 C 0.488281 -0.429688 0.40625 -0.710938 0.40625 -1.078125 L 0.40625 -3.1875 L 1.21875 -3.1875 L 1.21875 -1.171875 C 1.21875 -0.984375 1.257812 -0.84375 1.34375 -0.75 C 1.425781 -0.65625 1.550781 -0.609375 1.71875 -0.609375 C 1.945312 -0.609375 2.117188 -0.679688 2.234375 -0.828125 C 2.359375 -0.972656 2.421875 -1.203125 2.421875 -1.515625 L 2.421875 -3.1875 L 3.234375 -3.1875 L 3.234375 0 L 2.453125 0 L 2.453125 -0.46875 L 2.40625 -0.484375 C 2.300781 -0.296875 2.171875 -0.15625 2.015625 -0.0625 C 1.867188 0.0195312 1.679688 0.0625 1.453125 0.0625 Z M 1.453125 0.0625 "/></g></g><g transform="translate(57.852858, 13.777943)"><g><path d="M 0.453125 0 L 0.453125 -3.1875 L 1.234375 -3.1875 L 1.234375 -2.765625 L 1.296875 -2.75 C 1.398438 -2.914062 1.519531 -3.039062 1.65625 -3.125 C 1.789062 -3.207031 1.96875 -3.25 2.1875 -3.25 C 2.425781 -3.25 2.617188 -3.203125 2.765625 -3.109375 C 2.921875 -3.015625 3.03125 -2.875 3.09375 -2.6875 L 3.15625 -2.6875 C 3.25 -2.875 3.375 -3.015625 3.53125 -3.109375 C 3.6875 -3.203125 3.878906 -3.25 4.109375 -3.25 C 4.773438 -3.25 5.109375 -2.878906 5.109375 -2.140625 L 5.109375 0 L 4.3125 0 L 4.3125 -2.046875 C 4.3125 -2.234375 4.269531 -2.367188 4.1875 -2.453125 C 4.113281 -2.535156 4 -2.578125 3.84375 -2.578125 C 3.40625 -2.578125 3.1875 -2.28125 3.1875 -1.6875 L 3.1875 0 L 2.375 0 L 2.375 -2.046875 C 2.375 -2.234375 2.335938 -2.367188 2.265625 -2.453125 C 2.191406 -2.535156 2.078125 -2.578125 1.921875 -2.578125 C 1.710938 -2.578125 1.550781 -2.503906 1.4375 -2.359375 C 1.320312 -2.222656 1.265625 -2.003906 1.265625 -1.703125 L 1.265625 0 Z M 0.453125 0 "/></g></g><g transform="translate(63.369144, 13.777943)"><g><path d="M 2.234375 0.0625 C 1.828125 0.0625 1.523438 -0.0859375 1.328125 -0.390625 L 1.265625 -0.390625 L 1.265625 0 L 0.453125 0 L 0.453125 -4.46875 L 1.265625 -4.46875 L 1.265625 -2.8125 L 1.328125 -2.796875 C 1.429688 -2.953125 1.554688 -3.066406 1.703125 -3.140625 C 1.859375 -3.210938 2.039062 -3.25 2.25 -3.25 C 2.507812 -3.25 2.734375 -3.1875 2.921875 -3.0625 C 3.117188 -2.945312 3.269531 -2.765625 3.375 -2.515625 C 3.476562 -2.265625 3.53125 -1.957031 3.53125 -1.59375 C 3.53125 -1.226562 3.472656 -0.921875 3.359375 -0.671875 C 3.253906 -0.429688 3.101562 -0.25 2.90625 -0.125 C 2.707031 0 2.484375 0.0625 2.234375 0.0625 Z M 1.984375 -0.625 C 2.222656 -0.625 2.398438 -0.703125 2.515625 -0.859375 C 2.640625 -1.015625 2.703125 -1.257812 2.703125 -1.59375 C 2.703125 -1.925781 2.640625 -2.171875 2.515625 -2.328125 C 2.398438 -2.492188 2.222656 -2.578125 1.984375 -2.578125 C 1.753906 -2.578125 1.570312 -2.492188 1.4375 -2.328125 C 1.3125 -2.160156 1.25 -1.914062 1.25 -1.59375 C 1.25 -1.269531 1.3125 -1.023438 1.4375 -0.859375 C 1.570312 -0.703125 1.753906 -0.625 1.984375 -0.625 Z M 1.984375 -0.625 "/></g></g><g transform="translate(67.188333, 13.777943)"><g><path d="M 3.15625 -1.40625 L 1.109375 -1.40625 C 1.128906 -1.132812 1.207031 -0.9375 1.34375 -0.8125 C 1.476562 -0.6875 1.660156 -0.625 1.890625 -0.625 C 2.078125 -0.625 2.222656 -0.65625 2.328125 -0.71875 C 2.441406 -0.789062 2.535156 -0.894531 2.609375 -1.03125 L 2.671875 -1.03125 L 3.203125 -0.6875 C 3.097656 -0.46875 2.941406 -0.285156 2.734375 -0.140625 C 2.523438 -0.00390625 2.242188 0.0625 1.890625 0.0625 C 1.554688 0.0625 1.269531 0 1.03125 -0.125 C 0.789062 -0.25 0.601562 -0.4375 0.46875 -0.6875 C 0.34375 -0.9375 0.28125 -1.238281 0.28125 -1.59375 C 0.28125 -1.957031 0.347656 -2.265625 0.484375 -2.515625 C 0.628906 -2.765625 0.816406 -2.945312 1.046875 -3.0625 C 1.273438 -3.1875 1.535156 -3.25 1.828125 -3.25 C 2.285156 -3.25 2.632812 -3.128906 2.875 -2.890625 C 3.113281 -2.648438 3.234375 -2.300781 3.234375 -1.84375 C 3.234375 -1.675781 3.226562 -1.546875 3.21875 -1.453125 Z M 2.46875 -1.9375 C 2.457031 -2.175781 2.398438 -2.347656 2.296875 -2.453125 C 2.191406 -2.566406 2.035156 -2.625 1.828125 -2.625 C 1.421875 -2.625 1.1875 -2.394531 1.125 -1.9375 Z M 2.46875 -1.9375 "/></g></g><g transform="translate(70.654803, 13.777943)"><g><path d="M 0.453125 0 L 0.453125 -3.1875 L 1.234375 -3.1875 L 1.234375 -2.71875 L 1.296875 -2.703125 C 1.367188 -2.878906 1.46875 -3.007812 1.59375 -3.09375 C 1.726562 -3.175781 1.882812 -3.21875 2.0625 -3.21875 C 2.238281 -3.21875 2.375 -3.1875 2.46875 -3.125 L 2.34375 -2.4375 L 2.28125 -2.421875 C 2.226562 -2.441406 2.175781 -2.457031 2.125 -2.46875 C 2.070312 -2.476562 2.015625 -2.484375 1.953125 -2.484375 C 1.722656 -2.484375 1.550781 -2.40625 1.4375 -2.25 C 1.320312 -2.09375 1.265625 -1.835938 1.265625 -1.484375 L 1.265625 0 Z M 0.453125 0 "/></g></g><g transform="translate(73.155635, 13.777943)"><g><path d="M 1.484375 0.0625 C 1.273438 0.0625 1.078125 0.0351562 0.890625 -0.015625 C 0.710938 -0.0664062 0.554688 -0.132812 0.421875 -0.21875 C 0.296875 -0.3125 0.203125 -0.414062 0.140625 -0.53125 L 0.59375 -1.015625 L 0.65625 -1.015625 C 0.757812 -0.867188 0.882812 -0.757812 1.03125 -0.6875 C 1.175781 -0.625 1.332031 -0.59375 1.5 -0.59375 C 1.65625 -0.59375 1.769531 -0.617188 1.84375 -0.671875 C 1.925781 -0.722656 1.96875 -0.800781 1.96875 -0.90625 C 1.96875 -0.988281 1.9375 -1.054688 1.875 -1.109375 C 1.820312 -1.171875 1.734375 -1.21875 1.609375 -1.25 L 1.1875 -1.34375 C 0.875 -1.414062 0.644531 -1.53125 0.5 -1.6875 C 0.351562 -1.84375 0.28125 -2.039062 0.28125 -2.28125 C 0.28125 -2.476562 0.328125 -2.648438 0.421875 -2.796875 C 0.523438 -2.941406 0.664062 -3.050781 0.84375 -3.125 C 1.03125 -3.207031 1.25 -3.25 1.5 -3.25 C 1.78125 -3.25 2.015625 -3.207031 2.203125 -3.125 C 2.398438 -3.039062 2.550781 -2.929688 2.65625 -2.796875 L 2.21875 -2.328125 L 2.171875 -2.328125 C 2.078125 -2.429688 1.972656 -2.503906 1.859375 -2.546875 C 1.753906 -2.597656 1.632812 -2.625 1.5 -2.625 C 1.1875 -2.625 1.03125 -2.523438 1.03125 -2.328125 C 1.03125 -2.242188 1.054688 -2.175781 1.109375 -2.125 C 1.171875 -2.070312 1.273438 -2.03125 1.421875 -2 L 1.8125 -1.90625 C 2.132812 -1.832031 2.367188 -1.71875 2.515625 -1.5625 C 2.671875 -1.414062 2.75 -1.210938 2.75 -0.953125 C 2.75 -0.753906 2.695312 -0.578125 2.59375 -0.421875 C 2.5 -0.265625 2.351562 -0.144531 2.15625 -0.0625 C 1.96875 0.0195312 1.742188 0.0625 1.484375 0.0625 Z M 1.484375 0.0625 "/></g></g></g><g fill="#ffffff" fill-opacity="1"><g transform="translate(9.070741, 20.488459)"><g><path d="M 1.390625 -4.234375 L 1.390625 -0.703125 L 3.28125 -0.703125 L 3.28125 0 L 0.546875 0 L 0.546875 -4.234375 Z M 1.390625 -4.234375 "/></g></g><g transform="translate(12.493845, 20.488459)"><g><path d="M 1.859375 0.0625 C 1.546875 0.0625 1.269531 0 1.03125 -0.125 C 0.789062 -0.257812 0.601562 -0.445312 0.46875 -0.6875 C 0.34375 -0.9375 0.28125 -1.238281 0.28125 -1.59375 C 0.28125 -1.945312 0.34375 -2.242188 0.46875 -2.484375 C 0.601562 -2.734375 0.789062 -2.921875 1.03125 -3.046875 C 1.269531 -3.179688 1.546875 -3.25 1.859375 -3.25 C 2.171875 -3.25 2.441406 -3.179688 2.671875 -3.046875 C 2.910156 -2.921875 3.09375 -2.734375 3.21875 -2.484375 C 3.351562 -2.242188 3.421875 -1.945312 3.421875 -1.59375 C 3.421875 -1.238281 3.351562 -0.9375 3.21875 -0.6875 C 3.09375 -0.445312 2.910156 -0.257812 2.671875 -0.125 C 2.441406 0 2.171875 0.0625 1.859375 0.0625 Z M 1.859375 -0.625 C 2.347656 -0.625 2.59375 -0.945312 2.59375 -1.59375 C 2.59375 -1.925781 2.53125 -2.171875 2.40625 -2.328125 C 2.28125 -2.492188 2.097656 -2.578125 1.859375 -2.578125 C 1.359375 -2.578125 1.109375 -2.25 1.109375 -1.59375 C 1.109375 -0.945312 1.359375 -0.625 1.859375 -0.625 Z M 1.859375 -0.625 "/></g></g><g transform="translate(16.200279, 20.488459)"><g><path d="M 1.859375 0.0625 C 1.546875 0.0625 1.269531 0 1.03125 -0.125 C 0.800781 -0.257812 0.617188 -0.445312 0.484375 -0.6875 C 0.347656 -0.9375 0.28125 -1.238281 0.28125 -1.59375 C 0.28125 -1.945312 0.347656 -2.242188 0.484375 -2.484375 C 0.617188 -2.734375 0.800781 -2.921875 1.03125 -3.046875 C 1.269531 -3.179688 1.539062 -3.25 1.84375 -3.25 C 2.519531 -3.25 2.953125 -3.003906 3.140625 -2.515625 L 2.59375 -2.125 L 2.53125 -2.125 C 2.457031 -2.269531 2.367188 -2.378906 2.265625 -2.453125 C 2.160156 -2.535156 2.019531 -2.578125 1.84375 -2.578125 C 1.613281 -2.578125 1.429688 -2.492188 1.296875 -2.328125 C 1.171875 -2.171875 1.109375 -1.925781 1.109375 -1.59375 C 1.109375 -1.269531 1.171875 -1.023438 1.296875 -0.859375 C 1.429688 -0.703125 1.617188 -0.625 1.859375 -0.625 C 2.035156 -0.625 2.179688 -0.671875 2.296875 -0.765625 C 2.421875 -0.859375 2.507812 -0.988281 2.5625 -1.15625 L 2.625 -1.171875 L 3.1875 -0.859375 C 3.101562 -0.585938 2.953125 -0.363281 2.734375 -0.1875 C 2.515625 -0.0195312 2.222656 0.0625 1.859375 0.0625 Z M 1.859375 0.0625 "/></g></g><g transform="translate(19.4875, 20.488459)"><g><path d="M 1.25 0.0625 C 1.039062 0.0625 0.859375 0.0234375 0.703125 -0.046875 C 0.554688 -0.128906 0.441406 -0.238281 0.359375 -0.375 C 0.285156 -0.519531 0.25 -0.695312 0.25 -0.90625 C 0.25 -1.09375 0.285156 -1.25 0.359375 -1.375 C 0.441406 -1.507812 0.566406 -1.617188 0.734375 -1.703125 C 0.910156 -1.785156 1.132812 -1.847656 1.40625 -1.890625 C 1.59375 -1.921875 1.734375 -1.953125 1.828125 -1.984375 C 1.929688 -2.023438 2 -2.066406 2.03125 -2.109375 C 2.070312 -2.160156 2.09375 -2.222656 2.09375 -2.296875 C 2.09375 -2.390625 2.054688 -2.460938 1.984375 -2.515625 C 1.910156 -2.578125 1.789062 -2.609375 1.625 -2.609375 C 1.445312 -2.609375 1.28125 -2.566406 1.125 -2.484375 C 0.96875 -2.410156 0.828125 -2.304688 0.703125 -2.171875 L 0.65625 -2.171875 L 0.3125 -2.6875 C 0.476562 -2.863281 0.675781 -3 0.90625 -3.09375 C 1.144531 -3.195312 1.398438 -3.25 1.671875 -3.25 C 2.085938 -3.25 2.390625 -3.160156 2.578125 -2.984375 C 2.773438 -2.804688 2.875 -2.550781 2.875 -2.21875 L 2.875 -0.828125 C 2.875 -0.691406 2.9375 -0.625 3.0625 -0.625 C 3.101562 -0.625 3.148438 -0.628906 3.203125 -0.640625 L 3.234375 -0.640625 L 3.296875 -0.078125 C 3.253906 -0.046875 3.191406 -0.0195312 3.109375 0 C 3.035156 0.0078125 2.953125 0.015625 2.859375 0.015625 C 2.660156 0.015625 2.507812 -0.0195312 2.40625 -0.09375 C 2.300781 -0.164062 2.222656 -0.28125 2.171875 -0.4375 L 2.109375 -0.4375 C 1.953125 -0.101562 1.664062 0.0625 1.25 0.0625 Z M 1.5 -0.53125 C 1.6875 -0.53125 1.832031 -0.59375 1.9375 -0.71875 C 2.050781 -0.84375 2.109375 -1.019531 2.109375 -1.25 L 2.109375 -1.5625 L 2.046875 -1.578125 C 2.003906 -1.535156 1.941406 -1.5 1.859375 -1.46875 C 1.785156 -1.445312 1.675781 -1.425781 1.53125 -1.40625 C 1.351562 -1.375 1.222656 -1.320312 1.140625 -1.25 C 1.066406 -1.1875 1.03125 -1.085938 1.03125 -0.953125 C 1.03125 -0.816406 1.070312 -0.710938 1.15625 -0.640625 C 1.238281 -0.566406 1.351562 -0.53125 1.5 -0.53125 Z M 1.5 -0.53125 "/></g></g><g transform="translate(22.849889, 20.488459)"><g><path d="M 2.203125 -0.765625 L 2.40625 -0.171875 C 2.320312 -0.0976562 2.210938 -0.0390625 2.078125 0 C 1.953125 0.0390625 1.804688 0.0625 1.640625 0.0625 C 1.296875 0.0625 1.03125 -0.03125 0.84375 -0.21875 C 0.664062 -0.40625 0.578125 -0.679688 0.578125 -1.046875 L 0.578125 -2.5625 L 0.09375 -2.5625 L 0.09375 -3.1875 L 0.578125 -3.1875 L 0.578125 -3.8125 L 1.375 -3.9375 L 1.375 -3.1875 L 2.28125 -3.1875 L 2.28125 -2.5625 L 1.375 -2.5625 L 1.375 -1.09375 C 1.375 -0.9375 1.40625 -0.820312 1.46875 -0.75 C 1.539062 -0.675781 1.640625 -0.640625 1.765625 -0.640625 C 1.910156 -0.640625 2.035156 -0.679688 2.140625 -0.765625 Z M 2.203125 -0.765625 "/></g></g><g transform="translate(25.327592, 20.488459)"><g><path d="M 0.859375 -3.578125 C 0.710938 -3.578125 0.59375 -3.617188 0.5 -3.703125 C 0.414062 -3.785156 0.375 -3.898438 0.375 -4.046875 C 0.375 -4.179688 0.414062 -4.289062 0.5 -4.375 C 0.59375 -4.46875 0.710938 -4.515625 0.859375 -4.515625 C 0.953125 -4.515625 1.035156 -4.492188 1.109375 -4.453125 C 1.191406 -4.410156 1.253906 -4.351562 1.296875 -4.28125 C 1.335938 -4.207031 1.359375 -4.128906 1.359375 -4.046875 C 1.359375 -3.953125 1.335938 -3.867188 1.296875 -3.796875 C 1.253906 -3.722656 1.191406 -3.664062 1.109375 -3.625 C 1.035156 -3.59375 0.953125 -3.578125 0.859375 -3.578125 Z M 0.453125 0 L 0.453125 -3.1875 L 1.265625 -3.1875 L 1.265625 0 Z M 0.453125 0 "/></g></g><g transform="translate(27.044926, 20.488459)"><g><path d="M 1.859375 0.0625 C 1.546875 0.0625 1.269531 0 1.03125 -0.125 C 0.789062 -0.257812 0.601562 -0.445312 0.46875 -0.6875 C 0.34375 -0.9375 0.28125 -1.238281 0.28125 -1.59375 C 0.28125 -1.945312 0.34375 -2.242188 0.46875 -2.484375 C 0.601562 -2.734375 0.789062 -2.921875 1.03125 -3.046875 C 1.269531 -3.179688 1.546875 -3.25 1.859375 -3.25 C 2.171875 -3.25 2.441406 -3.179688 2.671875 -3.046875 C 2.910156 -2.921875 3.09375 -2.734375 3.21875 -2.484375 C 3.351562 -2.242188 3.421875 -1.945312 3.421875 -1.59375 C 3.421875 -1.238281 3.351562 -0.9375 3.21875 -0.6875 C 3.09375 -0.445312 2.910156 -0.257812 2.671875 -0.125 C 2.441406 0 2.171875 0.0625 1.859375 0.0625 Z M 1.859375 -0.625 C 2.347656 -0.625 2.59375 -0.945312 2.59375 -1.59375 C 2.59375 -1.925781 2.53125 -2.171875 2.40625 -2.328125 C 2.28125 -2.492188 2.097656 -2.578125 1.859375 -2.578125 C 1.359375 -2.578125 1.109375 -2.25 1.109375 -1.59375 C 1.109375 -0.945312 1.359375 -0.625 1.859375 -0.625 Z M 1.859375 -0.625 "/></g></g><g transform="translate(30.751361, 20.488459)"><g><path d="M 0.453125 0 L 0.453125 -3.1875 L 1.234375 -3.1875 L 1.234375 -2.71875 L 1.296875 -2.703125 C 1.492188 -3.066406 1.8125 -3.25 2.25 -3.25 C 2.625 -3.25 2.894531 -3.148438 3.0625 -2.953125 C 3.238281 -2.753906 3.328125 -2.460938 3.328125 -2.078125 L 3.328125 0 L 2.53125 0 L 2.53125 -1.96875 C 2.53125 -2.1875 2.484375 -2.34375 2.390625 -2.4375 C 2.304688 -2.53125 2.171875 -2.578125 1.984375 -2.578125 C 1.753906 -2.578125 1.578125 -2.5 1.453125 -2.34375 C 1.328125 -2.195312 1.265625 -1.96875 1.265625 -1.65625 L 1.265625 0 Z M 0.453125 0 "/></g></g><g transform="translate(34.486707, 20.488459)"><g><path d="M 0.8125 0.03125 C 0.707031 0.03125 0.613281 0.0078125 0.53125 -0.03125 C 0.457031 -0.0703125 0.398438 -0.128906 0.359375 -0.203125 C 0.316406 -0.273438 0.296875 -0.359375 0.296875 -0.453125 C 0.296875 -0.546875 0.316406 -0.628906 0.359375 -0.703125 C 0.398438 -0.773438 0.457031 -0.832031 0.53125 -0.875 C 0.613281 -0.914062 0.707031 -0.9375 0.8125 -0.9375 C 0.914062 -0.9375 1.003906 -0.914062 1.078125 -0.875 C 1.160156 -0.832031 1.222656 -0.773438 1.265625 -0.703125 C 1.304688 -0.628906 1.328125 -0.546875 1.328125 -0.453125 C 1.328125 -0.316406 1.28125 -0.203125 1.1875 -0.109375 C 1.09375 -0.015625 0.96875 0.03125 0.8125 0.03125 Z M 0.8125 -2.25 C 0.707031 -2.25 0.613281 -2.269531 0.53125 -2.3125 C 0.457031 -2.351562 0.398438 -2.410156 0.359375 -2.484375 C 0.316406 -2.554688 0.296875 -2.640625 0.296875 -2.734375 C 0.296875 -2.828125 0.316406 -2.910156 0.359375 -2.984375 C 0.398438 -3.054688 0.457031 -3.113281 0.53125 -3.15625 C 0.613281 -3.195312 0.707031 -3.21875 0.8125 -3.21875 C 0.914062 -3.21875 1.003906 -3.195312 1.078125 -3.15625 C 1.160156 -3.113281 1.222656 -3.054688 1.265625 -2.984375 C 1.304688 -2.910156 1.328125 -2.828125 1.328125 -2.734375 C 1.328125 -2.597656 1.28125 -2.484375 1.1875 -2.390625 C 1.09375 -2.296875 0.96875 -2.25 0.8125 -2.25 Z M 0.8125 -2.25 "/></g></g><g transform="translate(36.120198, 20.488459)"><g/></g><g transform="translate(37.516616, 20.488459)"><g><path d="M 1.875 0.0625 C 1.582031 0.0625 1.320312 0.0234375 1.09375 -0.046875 C 0.863281 -0.117188 0.671875 -0.210938 0.515625 -0.328125 C 0.367188 -0.453125 0.253906 -0.582031 0.171875 -0.71875 L 0.625 -1.28125 L 0.703125 -1.28125 C 0.828125 -1.09375 0.988281 -0.941406 1.1875 -0.828125 C 1.382812 -0.710938 1.613281 -0.65625 1.875 -0.65625 C 2.09375 -0.65625 2.257812 -0.703125 2.375 -0.796875 C 2.488281 -0.898438 2.546875 -1.03125 2.546875 -1.1875 C 2.546875 -1.289062 2.523438 -1.375 2.484375 -1.4375 C 2.453125 -1.507812 2.394531 -1.566406 2.3125 -1.609375 C 2.226562 -1.660156 2.113281 -1.707031 1.96875 -1.75 L 1.421875 -1.875 C 1.046875 -1.957031 0.765625 -2.097656 0.578125 -2.296875 C 0.390625 -2.503906 0.296875 -2.765625 0.296875 -3.078125 C 0.296875 -3.316406 0.351562 -3.523438 0.46875 -3.703125 C 0.59375 -3.890625 0.769531 -4.03125 1 -4.125 C 1.226562 -4.226562 1.5 -4.28125 1.8125 -4.28125 C 2.144531 -4.28125 2.425781 -4.238281 2.65625 -4.15625 C 2.882812 -4.070312 3.082031 -3.941406 3.25 -3.765625 L 2.828125 -3.203125 L 2.765625 -3.203125 C 2.640625 -3.328125 2.5 -3.421875 2.34375 -3.484375 C 2.1875 -3.546875 2.007812 -3.578125 1.8125 -3.578125 C 1.582031 -3.578125 1.40625 -3.535156 1.28125 -3.453125 C 1.164062 -3.367188 1.109375 -3.253906 1.109375 -3.109375 C 1.109375 -2.984375 1.148438 -2.878906 1.234375 -2.796875 C 1.328125 -2.722656 1.472656 -2.660156 1.671875 -2.609375 L 2.234375 -2.5 C 2.640625 -2.414062 2.9375 -2.269531 3.125 -2.0625 C 3.3125 -1.851562 3.40625 -1.582031 3.40625 -1.25 C 3.40625 -0.976562 3.347656 -0.742188 3.234375 -0.546875 C 3.117188 -0.359375 2.945312 -0.207031 2.71875 -0.09375 C 2.488281 0.0078125 2.207031 0.0625 1.875 0.0625 Z M 1.875 0.0625 "/></g></g><g transform="translate(41.147881, 20.488459)"><g><path d="M 1.25 0.0625 C 1.039062 0.0625 0.859375 0.0234375 0.703125 -0.046875 C 0.554688 -0.128906 0.441406 -0.238281 0.359375 -0.375 C 0.285156 -0.519531 0.25 -0.695312 0.25 -0.90625 C 0.25 -1.09375 0.285156 -1.25 0.359375 -1.375 C 0.441406 -1.507812 0.566406 -1.617188 0.734375 -1.703125 C 0.910156 -1.785156 1.132812 -1.847656 1.40625 -1.890625 C 1.59375 -1.921875 1.734375 -1.953125 1.828125 -1.984375 C 1.929688 -2.023438 2 -2.066406 2.03125 -2.109375 C 2.070312 -2.160156 2.09375 -2.222656 2.09375 -2.296875 C 2.09375 -2.390625 2.054688 -2.460938 1.984375 -2.515625 C 1.910156 -2.578125 1.789062 -2.609375 1.625 -2.609375 C 1.445312 -2.609375 1.28125 -2.566406 1.125 -2.484375 C 0.96875 -2.410156 0.828125 -2.304688 0.703125 -2.171875 L 0.65625 -2.171875 L 0.3125 -2.6875 C 0.476562 -2.863281 0.675781 -3 0.90625 -3.09375 C 1.144531 -3.195312 1.398438 -3.25 1.671875 -3.25 C 2.085938 -3.25 2.390625 -3.160156 2.578125 -2.984375 C 2.773438 -2.804688 2.875 -2.550781 2.875 -2.21875 L 2.875 -0.828125 C 2.875 -0.691406 2.9375 -0.625 3.0625 -0.625 C 3.101562 -0.625 3.148438 -0.628906 3.203125 -0.640625 L 3.234375 -0.640625 L 3.296875 -0.078125 C 3.253906 -0.046875 3.191406 -0.0195312 3.109375 0 C 3.035156 0.0078125 2.953125 0.015625 2.859375 0.015625 C 2.660156 0.015625 2.507812 -0.0195312 2.40625 -0.09375 C 2.300781 -0.164062 2.222656 -0.28125 2.171875 -0.4375 L 2.109375 -0.4375 C 1.953125 -0.101562 1.664062 0.0625 1.25 0.0625 Z M 1.5 -0.53125 C 1.6875 -0.53125 1.832031 -0.59375 1.9375 -0.71875 C 2.050781 -0.84375 2.109375 -1.019531 2.109375 -1.25 L 2.109375 -1.5625 L 2.046875 -1.578125 C 2.003906 -1.535156 1.941406 -1.5 1.859375 -1.46875 C 1.785156 -1.445312 1.675781 -1.425781 1.53125 -1.40625 C 1.351562 -1.375 1.222656 -1.320312 1.140625 -1.25 C 1.066406 -1.1875 1.03125 -1.085938 1.03125 -0.953125 C 1.03125 -0.816406 1.070312 -0.710938 1.15625 -0.640625 C 1.238281 -0.566406 1.351562 -0.53125 1.5 -0.53125 Z M 1.5 -0.53125 "/></g></g><g transform="translate(44.510271, 20.488459)"><g><path d="M 0.453125 0 L 0.453125 -3.1875 L 1.234375 -3.1875 L 1.234375 -2.71875 L 1.296875 -2.703125 C 1.492188 -3.066406 1.8125 -3.25 2.25 -3.25 C 2.625 -3.25 2.894531 -3.148438 3.0625 -2.953125 C 3.238281 -2.753906 3.328125 -2.460938 3.328125 -2.078125 L 3.328125 0 L 2.53125 0 L 2.53125 -1.96875 C 2.53125 -2.1875 2.484375 -2.34375 2.390625 -2.4375 C 2.304688 -2.53125 2.171875 -2.578125 1.984375 -2.578125 C 1.753906 -2.578125 1.578125 -2.5 1.453125 -2.34375 C 1.328125 -2.195312 1.265625 -1.96875 1.265625 -1.65625 L 1.265625 0 Z M 0.453125 0 "/></g></g><g transform="translate(48.245617, 20.488459)"><g/></g><g transform="translate(49.642035, 20.488459)"><g><path d="M 3.234375 -4.234375 L 3.234375 -3.53125 L 1.390625 -3.53125 L 1.390625 -2.40625 L 3.0625 -2.40625 L 3.0625 -1.71875 L 1.390625 -1.71875 L 1.390625 0 L 0.546875 0 L 0.546875 -4.234375 Z M 3.234375 -4.234375 "/></g></g><g transform="translate(53.059357, 20.488459)"><g><path d="M 0.453125 0 L 0.453125 -3.1875 L 1.234375 -3.1875 L 1.234375 -2.71875 L 1.296875 -2.703125 C 1.367188 -2.878906 1.46875 -3.007812 1.59375 -3.09375 C 1.726562 -3.175781 1.882812 -3.21875 2.0625 -3.21875 C 2.238281 -3.21875 2.375 -3.1875 2.46875 -3.125 L 2.34375 -2.4375 L 2.28125 -2.421875 C 2.226562 -2.441406 2.175781 -2.457031 2.125 -2.46875 C 2.070312 -2.476562 2.015625 -2.484375 1.953125 -2.484375 C 1.722656 -2.484375 1.550781 -2.40625 1.4375 -2.25 C 1.320312 -2.09375 1.265625 -1.835938 1.265625 -1.484375 L 1.265625 0 Z M 0.453125 0 "/></g></g><g transform="translate(55.560188, 20.488459)"><g><path d="M 1.25 0.0625 C 1.039062 0.0625 0.859375 0.0234375 0.703125 -0.046875 C 0.554688 -0.128906 0.441406 -0.238281 0.359375 -0.375 C 0.285156 -0.519531 0.25 -0.695312 0.25 -0.90625 C 0.25 -1.09375 0.285156 -1.25 0.359375 -1.375 C 0.441406 -1.507812 0.566406 -1.617188 0.734375 -1.703125 C 0.910156 -1.785156 1.132812 -1.847656 1.40625 -1.890625 C 1.59375 -1.921875 1.734375 -1.953125 1.828125 -1.984375 C 1.929688 -2.023438 2 -2.066406 2.03125 -2.109375 C 2.070312 -2.160156 2.09375 -2.222656 2.09375 -2.296875 C 2.09375 -2.390625 2.054688 -2.460938 1.984375 -2.515625 C 1.910156 -2.578125 1.789062 -2.609375 1.625 -2.609375 C 1.445312 -2.609375 1.28125 -2.566406 1.125 -2.484375 C 0.96875 -2.410156 0.828125 -2.304688 0.703125 -2.171875 L 0.65625 -2.171875 L 0.3125 -2.6875 C 0.476562 -2.863281 0.675781 -3 0.90625 -3.09375 C 1.144531 -3.195312 1.398438 -3.25 1.671875 -3.25 C 2.085938 -3.25 2.390625 -3.160156 2.578125 -2.984375 C 2.773438 -2.804688 2.875 -2.550781 2.875 -2.21875 L 2.875 -0.828125 C 2.875 -0.691406 2.9375 -0.625 3.0625 -0.625 C 3.101562 -0.625 3.148438 -0.628906 3.203125 -0.640625 L 3.234375 -0.640625 L 3.296875 -0.078125 C 3.253906 -0.046875 3.191406 -0.0195312 3.109375 0 C 3.035156 0.0078125 2.953125 0.015625 2.859375 0.015625 C 2.660156 0.015625 2.507812 -0.0195312 2.40625 -0.09375 C 2.300781 -0.164062 2.222656 -0.28125 2.171875 -0.4375 L 2.109375 -0.4375 C 1.953125 -0.101562 1.664062 0.0625 1.25 0.0625 Z M 1.5 -0.53125 C 1.6875 -0.53125 1.832031 -0.59375 1.9375 -0.71875 C 2.050781 -0.84375 2.109375 -1.019531 2.109375 -1.25 L 2.109375 -1.5625 L 2.046875 -1.578125 C 2.003906 -1.535156 1.941406 -1.5 1.859375 -1.46875 C 1.785156 -1.445312 1.675781 -1.425781 1.53125 -1.40625 C 1.351562 -1.375 1.222656 -1.320312 1.140625 -1.25 C 1.066406 -1.1875 1.03125 -1.085938 1.03125 -0.953125 C 1.03125 -0.816406 1.070312 -0.710938 1.15625 -0.640625 C 1.238281 -0.566406 1.351562 -0.53125 1.5 -0.53125 Z M 1.5 -0.53125 "/></g></g><g transform="translate(58.922578, 20.488459)"><g><path d="M 0.453125 0 L 0.453125 -3.1875 L 1.234375 -3.1875 L 1.234375 -2.71875 L 1.296875 -2.703125 C 1.492188 -3.066406 1.8125 -3.25 2.25 -3.25 C 2.625 -3.25 2.894531 -3.148438 3.0625 -2.953125 C 3.238281 -2.753906 3.328125 -2.460938 3.328125 -2.078125 L 3.328125 0 L 2.53125 0 L 2.53125 -1.96875 C 2.53125 -2.1875 2.484375 -2.34375 2.390625 -2.4375 C 2.304688 -2.53125 2.171875 -2.578125 1.984375 -2.578125 C 1.753906 -2.578125 1.578125 -2.5 1.453125 -2.34375 C 1.328125 -2.195312 1.265625 -1.96875 1.265625 -1.65625 L 1.265625 0 Z M 0.453125 0 "/></g></g><g transform="translate(62.657924, 20.488459)"><g><path d="M 1.859375 0.0625 C 1.546875 0.0625 1.269531 0 1.03125 -0.125 C 0.800781 -0.257812 0.617188 -0.445312 0.484375 -0.6875 C 0.347656 -0.9375 0.28125 -1.238281 0.28125 -1.59375 C 0.28125 -1.945312 0.347656 -2.242188 0.484375 -2.484375 C 0.617188 -2.734375 0.800781 -2.921875 1.03125 -3.046875 C 1.269531 -3.179688 1.539062 -3.25 1.84375 -3.25 C 2.519531 -3.25 2.953125 -3.003906 3.140625 -2.515625 L 2.59375 -2.125 L 2.53125 -2.125 C 2.457031 -2.269531 2.367188 -2.378906 2.265625 -2.453125 C 2.160156 -2.535156 2.019531 -2.578125 1.84375 -2.578125 C 1.613281 -2.578125 1.429688 -2.492188 1.296875 -2.328125 C 1.171875 -2.171875 1.109375 -1.925781 1.109375 -1.59375 C 1.109375 -1.269531 1.171875 -1.023438 1.296875 -0.859375 C 1.429688 -0.703125 1.617188 -0.625 1.859375 -0.625 C 2.035156 -0.625 2.179688 -0.671875 2.296875 -0.765625 C 2.421875 -0.859375 2.507812 -0.988281 2.5625 -1.15625 L 2.625 -1.171875 L 3.1875 -0.859375 C 3.101562 -0.585938 2.953125 -0.363281 2.734375 -0.1875 C 2.515625 -0.0195312 2.222656 0.0625 1.859375 0.0625 Z M 1.859375 0.0625 "/></g></g><g transform="translate(65.945145, 20.488459)"><g><path d="M 0.859375 -3.578125 C 0.710938 -3.578125 0.59375 -3.617188 0.5 -3.703125 C 0.414062 -3.785156 0.375 -3.898438 0.375 -4.046875 C 0.375 -4.179688 0.414062 -4.289062 0.5 -4.375 C 0.59375 -4.46875 0.710938 -4.515625 0.859375 -4.515625 C 0.953125 -4.515625 1.035156 -4.492188 1.109375 -4.453125 C 1.191406 -4.410156 1.253906 -4.351562 1.296875 -4.28125 C 1.335938 -4.207031 1.359375 -4.128906 1.359375 -4.046875 C 1.359375 -3.953125 1.335938 -3.867188 1.296875 -3.796875 C 1.253906 -3.722656 1.191406 -3.664062 1.109375 -3.625 C 1.035156 -3.59375 0.953125 -3.578125 0.859375 -3.578125 Z M 0.453125 0 L 0.453125 -3.1875 L 1.265625 -3.1875 L 1.265625 0 Z M 0.453125 0 "/></g></g><g transform="translate(67.662479, 20.488459)"><g><path d="M 1.484375 0.0625 C 1.273438 0.0625 1.078125 0.0351562 0.890625 -0.015625 C 0.710938 -0.0664062 0.554688 -0.132812 0.421875 -0.21875 C 0.296875 -0.3125 0.203125 -0.414062 0.140625 -0.53125 L 0.59375 -1.015625 L 0.65625 -1.015625 C 0.757812 -0.867188 0.882812 -0.757812 1.03125 -0.6875 C 1.175781 -0.625 1.332031 -0.59375 1.5 -0.59375 C 1.65625 -0.59375 1.769531 -0.617188 1.84375 -0.671875 C 1.925781 -0.722656 1.96875 -0.800781 1.96875 -0.90625 C 1.96875 -0.988281 1.9375 -1.054688 1.875 -1.109375 C 1.820312 -1.171875 1.734375 -1.21875 1.609375 -1.25 L 1.1875 -1.34375 C 0.875 -1.414062 0.644531 -1.53125 0.5 -1.6875 C 0.351562 -1.84375 0.28125 -2.039062 0.28125 -2.28125 C 0.28125 -2.476562 0.328125 -2.648438 0.421875 -2.796875 C 0.523438 -2.941406 0.664062 -3.050781 0.84375 -3.125 C 1.03125 -3.207031 1.25 -3.25 1.5 -3.25 C 1.78125 -3.25 2.015625 -3.207031 2.203125 -3.125 C 2.398438 -3.039062 2.550781 -2.929688 2.65625 -2.796875 L 2.21875 -2.328125 L 2.171875 -2.328125 C 2.078125 -2.429688 1.972656 -2.503906 1.859375 -2.546875 C 1.753906 -2.597656 1.632812 -2.625 1.5 -2.625 C 1.1875 -2.625 1.03125 -2.523438 1.03125 -2.328125 C 1.03125 -2.242188 1.054688 -2.175781 1.109375 -2.125 C 1.171875 -2.070312 1.273438 -2.03125 1.421875 -2 L 1.8125 -1.90625 C 2.132812 -1.832031 2.367188 -1.71875 2.515625 -1.5625 C 2.671875 -1.414062 2.75 -1.210938 2.75 -0.953125 C 2.75 -0.753906 2.695312 -0.578125 2.59375 -0.421875 C 2.5 -0.265625 2.351562 -0.144531 2.15625 -0.0625 C 1.96875 0.0195312 1.742188 0.0625 1.484375 0.0625 Z M 1.484375 0.0625 "/></g></g><g transform="translate(70.602763, 20.488459)"><g><path d="M 1.859375 0.0625 C 1.546875 0.0625 1.269531 0 1.03125 -0.125 C 0.800781 -0.257812 0.617188 -0.445312 0.484375 -0.6875 C 0.347656 -0.9375 0.28125 -1.238281 0.28125 -1.59375 C 0.28125 -1.945312 0.347656 -2.242188 0.484375 -2.484375 C 0.617188 -2.734375 0.800781 -2.921875 1.03125 -3.046875 C 1.269531 -3.179688 1.539062 -3.25 1.84375 -3.25 C 2.519531 -3.25 2.953125 -3.003906 3.140625 -2.515625 L 2.59375 -2.125 L 2.53125 -2.125 C 2.457031 -2.269531 2.367188 -2.378906 2.265625 -2.453125 C 2.160156 -2.535156 2.019531 -2.578125 1.84375 -2.578125 C 1.613281 -2.578125 1.429688 -2.492188 1.296875 -2.328125 C 1.171875 -2.171875 1.109375 -1.925781 1.109375 -1.59375 C 1.109375 -1.269531 1.171875 -1.023438 1.296875 -0.859375 C 1.429688 -0.703125 1.617188 -0.625 1.859375 -0.625 C 2.035156 -0.625 2.179688 -0.671875 2.296875 -0.765625 C 2.421875 -0.859375 2.507812 -0.988281 2.5625 -1.15625 L 2.625 -1.171875 L 3.1875 -0.859375 C 3.101562 -0.585938 2.953125 -0.363281 2.734375 -0.1875 C 2.515625 -0.0195312 2.222656 0.0625 1.859375 0.0625 Z M 1.859375 0.0625 "/></g></g><g transform="translate(73.889983, 20.488459)"><g><path d="M 1.859375 0.0625 C 1.546875 0.0625 1.269531 0 1.03125 -0.125 C 0.789062 -0.257812 0.601562 -0.445312 0.46875 -0.6875 C 0.34375 -0.9375 0.28125 -1.238281 0.28125 -1.59375 C 0.28125 -1.945312 0.34375 -2.242188 0.46875 -2.484375 C 0.601562 -2.734375 0.789062 -2.921875 1.03125 -3.046875 C 1.269531 -3.179688 1.546875 -3.25 1.859375 -3.25 C 2.171875 -3.25 2.441406 -3.179688 2.671875 -3.046875 C 2.910156 -2.921875 3.09375 -2.734375 3.21875 -2.484375 C 3.351562 -2.242188 3.421875 -1.945312 3.421875 -1.59375 C 3.421875 -1.238281 3.351562 -0.9375 3.21875 -0.6875 C 3.09375 -0.445312 2.910156 -0.257812 2.671875 -0.125 C 2.441406 0 2.171875 0.0625 1.859375 0.0625 Z M 1.859375 -0.625 C 2.347656 -0.625 2.59375 -0.945312 2.59375 -1.59375 C 2.59375 -1.925781 2.53125 -2.171875 2.40625 -2.328125 C 2.28125 -2.492188 2.097656 -2.578125 1.859375 -2.578125 C 1.359375 -2.578125 1.109375 -2.25 1.109375 -1.59375 C 1.109375 -0.945312 1.359375 -0.625 1.859375 -0.625 Z M 1.859375 -0.625 "/></g></g><g transform="translate(77.596418, 20.488459)"><g><path d="M 0.109375 0.84375 C 0.285156 0.738281 0.4375 0.613281 0.5625 0.46875 C 0.695312 0.320312 0.769531 0.171875 0.78125 0.015625 C 0.632812 0.015625 0.515625 -0.0234375 0.421875 -0.109375 C 0.335938 -0.203125 0.296875 -0.316406 0.296875 -0.453125 C 0.296875 -0.546875 0.316406 -0.628906 0.359375 -0.703125 C 0.398438 -0.773438 0.457031 -0.832031 0.53125 -0.875 C 0.613281 -0.925781 0.707031 -0.953125 0.8125 -0.953125 C 0.96875 -0.953125 1.09375 -0.894531 1.1875 -0.78125 C 1.289062 -0.675781 1.34375 -0.523438 1.34375 -0.328125 C 1.34375 0.015625 1.253906 0.3125 1.078125 0.5625 C 0.898438 0.820312 0.664062 1.039062 0.375 1.21875 Z M 0.109375 0.84375 "/></g></g><g transform="translate(79.241473, 20.488459)"><g/></g><g transform="translate(80.637891, 20.488459)"><g><path d="M 2.3125 0.0625 C 1.914062 0.0625 1.566406 -0.015625 1.265625 -0.171875 C 0.972656 -0.335938 0.742188 -0.582031 0.578125 -0.90625 C 0.410156 -1.238281 0.328125 -1.640625 0.328125 -2.109375 C 0.328125 -2.585938 0.410156 -2.988281 0.578125 -3.3125 C 0.742188 -3.632812 0.972656 -3.875 1.265625 -4.03125 C 1.566406 -4.195312 1.914062 -4.28125 2.3125 -4.28125 C 2.71875 -4.28125 3.0625 -4.203125 3.34375 -4.046875 C 3.632812 -3.890625 3.835938 -3.648438 3.953125 -3.328125 L 3.34375 -2.953125 L 3.265625 -2.953125 C 3.179688 -3.171875 3.0625 -3.328125 2.90625 -3.421875 C 2.75 -3.515625 2.550781 -3.5625 2.3125 -3.5625 C 1.957031 -3.5625 1.679688 -3.445312 1.484375 -3.21875 C 1.285156 -2.988281 1.1875 -2.617188 1.1875 -2.109375 C 1.1875 -1.609375 1.285156 -1.238281 1.484375 -1 C 1.679688 -0.769531 1.957031 -0.65625 2.3125 -0.65625 C 2.863281 -0.65625 3.195312 -0.925781 3.3125 -1.46875 L 3.390625 -1.46875 L 4 -1.140625 C 3.882812 -0.742188 3.6875 -0.441406 3.40625 -0.234375 C 3.132812 -0.0351562 2.769531 0.0625 2.3125 0.0625 Z M 2.3125 0.0625 "/></g></g><g transform="translate(84.783779, 20.488459)"><g><path d="M 1.25 0.0625 C 1.039062 0.0625 0.859375 0.0234375 0.703125 -0.046875 C 0.554688 -0.128906 0.441406 -0.238281 0.359375 -0.375 C 0.285156 -0.519531 0.25 -0.695312 0.25 -0.90625 C 0.25 -1.09375 0.285156 -1.25 0.359375 -1.375 C 0.441406 -1.507812 0.566406 -1.617188 0.734375 -1.703125 C 0.910156 -1.785156 1.132812 -1.847656 1.40625 -1.890625 C 1.59375 -1.921875 1.734375 -1.953125 1.828125 -1.984375 C 1.929688 -2.023438 2 -2.066406 2.03125 -2.109375 C 2.070312 -2.160156 2.09375 -2.222656 2.09375 -2.296875 C 2.09375 -2.390625 2.054688 -2.460938 1.984375 -2.515625 C 1.910156 -2.578125 1.789062 -2.609375 1.625 -2.609375 C 1.445312 -2.609375 1.28125 -2.566406 1.125 -2.484375 C 0.96875 -2.410156 0.828125 -2.304688 0.703125 -2.171875 L 0.65625 -2.171875 L 0.3125 -2.6875 C 0.476562 -2.863281 0.675781 -3 0.90625 -3.09375 C 1.144531 -3.195312 1.398438 -3.25 1.671875 -3.25 C 2.085938 -3.25 2.390625 -3.160156 2.578125 -2.984375 C 2.773438 -2.804688 2.875 -2.550781 2.875 -2.21875 L 2.875 -0.828125 C 2.875 -0.691406 2.9375 -0.625 3.0625 -0.625 C 3.101562 -0.625 3.148438 -0.628906 3.203125 -0.640625 L 3.234375 -0.640625 L 3.296875 -0.078125 C 3.253906 -0.046875 3.191406 -0.0195312 3.109375 0 C 3.035156 0.0078125 2.953125 0.015625 2.859375 0.015625 C 2.660156 0.015625 2.507812 -0.0195312 2.40625 -0.09375 C 2.300781 -0.164062 2.222656 -0.28125 2.171875 -0.4375 L 2.109375 -0.4375 C 1.953125 -0.101562 1.664062 0.0625 1.25 0.0625 Z M 1.5 -0.53125 C 1.6875 -0.53125 1.832031 -0.59375 1.9375 -0.71875 C 2.050781 -0.84375 2.109375 -1.019531 2.109375 -1.25 L 2.109375 -1.5625 L 2.046875 -1.578125 C 2.003906 -1.535156 1.941406 -1.5 1.859375 -1.46875 C 1.785156 -1.445312 1.675781 -1.425781 1.53125 -1.40625 C 1.351562 -1.375 1.222656 -1.320312 1.140625 -1.25 C 1.066406 -1.1875 1.03125 -1.085938 1.03125 -0.953125 C 1.03125 -0.816406 1.070312 -0.710938 1.15625 -0.640625 C 1.238281 -0.566406 1.351562 -0.53125 1.5 -0.53125 Z M 1.5 -0.53125 "/></g></g><g transform="translate(88.146168, 20.488459)"><g><path d="M 1.328125 0.0625 C 1.035156 0.0625 0.8125 -0.015625 0.65625 -0.171875 C 0.507812 -0.328125 0.4375 -0.5625 0.4375 -0.875 L 0.4375 -4.46875 L 1.234375 -4.46875 L 1.234375 -0.90625 C 1.234375 -0.71875 1.316406 -0.625 1.484375 -0.625 C 1.523438 -0.625 1.570312 -0.628906 1.625 -0.640625 L 1.671875 -0.625 L 1.75 -0.015625 C 1.695312 0.00390625 1.632812 0.0195312 1.5625 0.03125 C 1.488281 0.0507812 1.410156 0.0625 1.328125 0.0625 Z M 1.328125 0.0625 "/></g></g><g transform="translate(89.979148, 20.488459)"><g><path d="M 0.859375 -3.578125 C 0.710938 -3.578125 0.59375 -3.617188 0.5 -3.703125 C 0.414062 -3.785156 0.375 -3.898438 0.375 -4.046875 C 0.375 -4.179688 0.414062 -4.289062 0.5 -4.375 C 0.59375 -4.46875 0.710938 -4.515625 0.859375 -4.515625 C 0.953125 -4.515625 1.035156 -4.492188 1.109375 -4.453125 C 1.191406 -4.410156 1.253906 -4.351562 1.296875 -4.28125 C 1.335938 -4.207031 1.359375 -4.128906 1.359375 -4.046875 C 1.359375 -3.953125 1.335938 -3.867188 1.296875 -3.796875 C 1.253906 -3.722656 1.191406 -3.664062 1.109375 -3.625 C 1.035156 -3.59375 0.953125 -3.578125 0.859375 -3.578125 Z M 0.453125 0 L 0.453125 -3.1875 L 1.265625 -3.1875 L 1.265625 0 Z M 0.453125 0 "/></g></g><g transform="translate(91.696482, 20.488459)"><g><path d="M 0.5625 0 L 0.5625 -2.5625 L 0.109375 -2.5625 L 0.109375 -3.1875 L 0.5625 -3.1875 C 0.53125 -3.320312 0.515625 -3.453125 0.515625 -3.578125 C 0.515625 -3.773438 0.554688 -3.945312 0.640625 -4.09375 C 0.734375 -4.238281 0.867188 -4.347656 1.046875 -4.421875 C 1.222656 -4.492188 1.429688 -4.53125 1.671875 -4.53125 C 2.015625 -4.53125 2.273438 -4.46875 2.453125 -4.34375 L 2.265625 -3.765625 L 2.203125 -3.75 C 2.085938 -3.832031 1.9375 -3.875 1.75 -3.875 C 1.601562 -3.875 1.492188 -3.835938 1.421875 -3.765625 C 1.347656 -3.691406 1.3125 -3.597656 1.3125 -3.484375 C 1.3125 -3.429688 1.3125 -3.378906 1.3125 -3.328125 C 1.320312 -3.285156 1.335938 -3.238281 1.359375 -3.1875 L 2.265625 -3.1875 L 2.265625 -2.5625 L 1.359375 -2.5625 L 1.359375 0 Z M 0.5625 0 "/></g></g><g transform="translate(93.997825, 20.488459)"><g><path d="M 1.859375 0.0625 C 1.546875 0.0625 1.269531 0 1.03125 -0.125 C 0.789062 -0.257812 0.601562 -0.445312 0.46875 -0.6875 C 0.34375 -0.9375 0.28125 -1.238281 0.28125 -1.59375 C 0.28125 -1.945312 0.34375 -2.242188 0.46875 -2.484375 C 0.601562 -2.734375 0.789062 -2.921875 1.03125 -3.046875 C 1.269531 -3.179688 1.546875 -3.25 1.859375 -3.25 C 2.171875 -3.25 2.441406 -3.179688 2.671875 -3.046875 C 2.910156 -2.921875 3.09375 -2.734375 3.21875 -2.484375 C 3.351562 -2.242188 3.421875 -1.945312 3.421875 -1.59375 C 3.421875 -1.238281 3.351562 -0.9375 3.21875 -0.6875 C 3.09375 -0.445312 2.910156 -0.257812 2.671875 -0.125 C 2.441406 0 2.171875 0.0625 1.859375 0.0625 Z M 1.859375 -0.625 C 2.347656 -0.625 2.59375 -0.945312 2.59375 -1.59375 C 2.59375 -1.925781 2.53125 -2.171875 2.40625 -2.328125 C 2.28125 -2.492188 2.097656 -2.578125 1.859375 -2.578125 C 1.359375 -2.578125 1.109375 -2.25 1.109375 -1.59375 C 1.109375 -0.945312 1.359375 -0.625 1.859375 -0.625 Z M 1.859375 -0.625 "/></g></g><g transform="translate(97.70426, 20.488459)"><g><path d="M 0.453125 0 L 0.453125 -3.1875 L 1.234375 -3.1875 L 1.234375 -2.71875 L 1.296875 -2.703125 C 1.367188 -2.878906 1.46875 -3.007812 1.59375 -3.09375 C 1.726562 -3.175781 1.882812 -3.21875 2.0625 -3.21875 C 2.238281 -3.21875 2.375 -3.1875 2.46875 -3.125 L 2.34375 -2.4375 L 2.28125 -2.421875 C 2.226562 -2.441406 2.175781 -2.457031 2.125 -2.46875 C 2.070312 -2.476562 2.015625 -2.484375 1.953125 -2.484375 C 1.722656 -2.484375 1.550781 -2.40625 1.4375 -2.25 C 1.320312 -2.09375 1.265625 -1.835938 1.265625 -1.484375 L 1.265625 0 Z M 0.453125 0 "/></g></g><g transform="translate(100.205092, 20.488459)"><g><path d="M 0.453125 0 L 0.453125 -3.1875 L 1.234375 -3.1875 L 1.234375 -2.71875 L 1.296875 -2.703125 C 1.492188 -3.066406 1.8125 -3.25 2.25 -3.25 C 2.625 -3.25 2.894531 -3.148438 3.0625 -2.953125 C 3.238281 -2.753906 3.328125 -2.460938 3.328125 -2.078125 L 3.328125 0 L 2.53125 0 L 2.53125 -1.96875 C 2.53125 -2.1875 2.484375 -2.34375 2.390625 -2.4375 C 2.304688 -2.53125 2.171875 -2.578125 1.984375 -2.578125 C 1.753906 -2.578125 1.578125 -2.5 1.453125 -2.34375 C 1.328125 -2.195312 1.265625 -1.96875 1.265625 -1.65625 L 1.265625 0 Z M 0.453125 0 "/></g></g><g transform="translate(103.940438, 20.488459)"><g><path d="M 0.859375 -3.578125 C 0.710938 -3.578125 0.59375 -3.617188 0.5 -3.703125 C 0.414062 -3.785156 0.375 -3.898438 0.375 -4.046875 C 0.375 -4.179688 0.414062 -4.289062 0.5 -4.375 C 0.59375 -4.46875 0.710938 -4.515625 0.859375 -4.515625 C 0.953125 -4.515625 1.035156 -4.492188 1.109375 -4.453125 C 1.191406 -4.410156 1.253906 -4.351562 1.296875 -4.28125 C 1.335938 -4.207031 1.359375 -4.128906 1.359375 -4.046875 C 1.359375 -3.953125 1.335938 -3.867188 1.296875 -3.796875 C 1.253906 -3.722656 1.191406 -3.664062 1.109375 -3.625 C 1.035156 -3.59375 0.953125 -3.578125 0.859375 -3.578125 Z M 0.453125 0 L 0.453125 -3.1875 L 1.265625 -3.1875 L 1.265625 0 Z M 0.453125 0 "/></g></g><g transform="translate(105.657772, 20.488459)"><g><path d="M 1.25 0.0625 C 1.039062 0.0625 0.859375 0.0234375 0.703125 -0.046875 C 0.554688 -0.128906 0.441406 -0.238281 0.359375 -0.375 C 0.285156 -0.519531 0.25 -0.695312 0.25 -0.90625 C 0.25 -1.09375 0.285156 -1.25 0.359375 -1.375 C 0.441406 -1.507812 0.566406 -1.617188 0.734375 -1.703125 C 0.910156 -1.785156 1.132812 -1.847656 1.40625 -1.890625 C 1.59375 -1.921875 1.734375 -1.953125 1.828125 -1.984375 C 1.929688 -2.023438 2 -2.066406 2.03125 -2.109375 C 2.070312 -2.160156 2.09375 -2.222656 2.09375 -2.296875 C 2.09375 -2.390625 2.054688 -2.460938 1.984375 -2.515625 C 1.910156 -2.578125 1.789062 -2.609375 1.625 -2.609375 C 1.445312 -2.609375 1.28125 -2.566406 1.125 -2.484375 C 0.96875 -2.410156 0.828125 -2.304688 0.703125 -2.171875 L 0.65625 -2.171875 L 0.3125 -2.6875 C 0.476562 -2.863281 0.675781 -3 0.90625 -3.09375 C 1.144531 -3.195312 1.398438 -3.25 1.671875 -3.25 C 2.085938 -3.25 2.390625 -3.160156 2.578125 -2.984375 C 2.773438 -2.804688 2.875 -2.550781 2.875 -2.21875 L 2.875 -0.828125 C 2.875 -0.691406 2.9375 -0.625 3.0625 -0.625 C 3.101562 -0.625 3.148438 -0.628906 3.203125 -0.640625 L 3.234375 -0.640625 L 3.296875 -0.078125 C 3.253906 -0.046875 3.191406 -0.0195312 3.109375 0 C 3.035156 0.0078125 2.953125 0.015625 2.859375 0.015625 C 2.660156 0.015625 2.507812 -0.0195312 2.40625 -0.09375 C 2.300781 -0.164062 2.222656 -0.28125 2.171875 -0.4375 L 2.109375 -0.4375 C 1.953125 -0.101562 1.664062 0.0625 1.25 0.0625 Z M 1.5 -0.53125 C 1.6875 -0.53125 1.832031 -0.59375 1.9375 -0.71875 C 2.050781 -0.84375 2.109375 -1.019531 2.109375 -1.25 L 2.109375 -1.5625 L 2.046875 -1.578125 C 2.003906 -1.535156 1.941406 -1.5 1.859375 -1.46875 C 1.785156 -1.445312 1.675781 -1.425781 1.53125 -1.40625 C 1.351562 -1.375 1.222656 -1.320312 1.140625 -1.25 C 1.066406 -1.1875 1.03125 -1.085938 1.03125 -0.953125 C 1.03125 -0.816406 1.070312 -0.710938 1.15625 -0.640625 C 1.238281 -0.566406 1.351562 -0.53125 1.5 -0.53125 Z M 1.5 -0.53125 "/></g></g><g transform="translate(109.020162, 20.488459)"><g><path d="M 0.109375 0.84375 C 0.285156 0.738281 0.4375 0.613281 0.5625 0.46875 C 0.695312 0.320312 0.769531 0.171875 0.78125 0.015625 C 0.632812 0.015625 0.515625 -0.0234375 0.421875 -0.109375 C 0.335938 -0.203125 0.296875 -0.316406 0.296875 -0.453125 C 0.296875 -0.546875 0.316406 -0.628906 0.359375 -0.703125 C 0.398438 -0.773438 0.457031 -0.832031 0.53125 -0.875 C 0.613281 -0.925781 0.707031 -0.953125 0.8125 -0.953125 C 0.96875 -0.953125 1.09375 -0.894531 1.1875 -0.78125 C 1.289062 -0.675781 1.34375 -0.523438 1.34375 -0.328125 C 1.34375 0.015625 1.253906 0.3125 1.078125 0.5625 C 0.898438 0.820312 0.664062 1.039062 0.375 1.21875 Z M 0.109375 0.84375 "/></g></g><g transform="translate(110.665217, 20.488459)"><g/></g><g transform="translate(112.061635, 20.488459)"><g><path d="M 2.234375 0.0625 C 1.660156 0.0625 1.226562 -0.0703125 0.9375 -0.34375 C 0.65625 -0.625 0.515625 -1.035156 0.515625 -1.578125 L 0.515625 -4.234375 L 1.34375 -4.234375 L 1.34375 -1.59375 C 1.34375 -1.28125 1.414062 -1.046875 1.5625 -0.890625 C 1.707031 -0.742188 1.929688 -0.671875 2.234375 -0.671875 C 2.835938 -0.671875 3.140625 -0.976562 3.140625 -1.59375 L 3.140625 -4.234375 L 3.953125 -4.234375 L 3.953125 -1.578125 C 3.953125 -1.035156 3.8125 -0.625 3.53125 -0.34375 C 3.25 -0.0703125 2.816406 0.0625 2.234375 0.0625 Z M 2.234375 0.0625 "/></g></g><g transform="translate(116.542894, 20.488459)"><g><path d="M 1.875 0.0625 C 1.582031 0.0625 1.320312 0.0234375 1.09375 -0.046875 C 0.863281 -0.117188 0.671875 -0.210938 0.515625 -0.328125 C 0.367188 -0.453125 0.253906 -0.582031 0.171875 -0.71875 L 0.625 -1.28125 L 0.703125 -1.28125 C 0.828125 -1.09375 0.988281 -0.941406 1.1875 -0.828125 C 1.382812 -0.710938 1.613281 -0.65625 1.875 -0.65625 C 2.09375 -0.65625 2.257812 -0.703125 2.375 -0.796875 C 2.488281 -0.898438 2.546875 -1.03125 2.546875 -1.1875 C 2.546875 -1.289062 2.523438 -1.375 2.484375 -1.4375 C 2.453125 -1.507812 2.394531 -1.566406 2.3125 -1.609375 C 2.226562 -1.660156 2.113281 -1.707031 1.96875 -1.75 L 1.421875 -1.875 C 1.046875 -1.957031 0.765625 -2.097656 0.578125 -2.296875 C 0.390625 -2.503906 0.296875 -2.765625 0.296875 -3.078125 C 0.296875 -3.316406 0.351562 -3.523438 0.46875 -3.703125 C 0.59375 -3.890625 0.769531 -4.03125 1 -4.125 C 1.226562 -4.226562 1.5 -4.28125 1.8125 -4.28125 C 2.144531 -4.28125 2.425781 -4.238281 2.65625 -4.15625 C 2.882812 -4.070312 3.082031 -3.941406 3.25 -3.765625 L 2.828125 -3.203125 L 2.765625 -3.203125 C 2.640625 -3.328125 2.5 -3.421875 2.34375 -3.484375 C 2.1875 -3.546875 2.007812 -3.578125 1.8125 -3.578125 C 1.582031 -3.578125 1.40625 -3.535156 1.28125 -3.453125 C 1.164062 -3.367188 1.109375 -3.253906 1.109375 -3.109375 C 1.109375 -2.984375 1.148438 -2.878906 1.234375 -2.796875 C 1.328125 -2.722656 1.472656 -2.660156 1.671875 -2.609375 L 2.234375 -2.5 C 2.640625 -2.414062 2.9375 -2.269531 3.125 -2.0625 C 3.3125 -1.851562 3.40625 -1.582031 3.40625 -1.25 C 3.40625 -0.976562 3.347656 -0.742188 3.234375 -0.546875 C 3.117188 -0.359375 2.945312 -0.207031 2.71875 -0.09375 C 2.488281 0.0078125 2.207031 0.0625 1.875 0.0625 Z M 1.875 0.0625 "/></g></g><g transform="translate(120.17416, 20.488459)"><g><path d="M 4.0625 0 L 3.171875 0 L 2.859375 -0.96875 L 1.234375 -0.96875 L 0.921875 0 L 0.0625 0 L 1.53125 -4.234375 L 2.59375 -4.234375 Z M 2.015625 -3.34375 L 1.46875 -1.671875 L 2.625 -1.671875 L 2.078125 -3.34375 Z M 2.015625 -3.34375 "/></g></g></g><g fill="#ffffff" fill-opacity="1"><g transform="translate(124.292102, 20.488459)"><g/></g></g><path fill="#ffffff" d="M 9.070312 27.714844 L 51.605469 27.714844 L 51.605469 28.207031 L 9.070312 28.207031 Z M 9.070312 27.714844 " fill-opacity="1" fill-rule="nonzero"/><g fill="#ffffff" fill-opacity="1"><g transform="translate(9.070741, 27.219514)"><g><path d="M 2.3125 0.0625 C 1.914062 0.0625 1.566406 -0.015625 1.265625 -0.171875 C 0.972656 -0.335938 0.742188 -0.582031 0.578125 -0.90625 C 0.410156 -1.238281 0.328125 -1.640625 0.328125 -2.109375 C 0.328125 -2.585938 0.410156 -2.988281 0.578125 -3.3125 C 0.742188 -3.632812 0.972656 -3.875 1.265625 -4.03125 C 1.566406 -4.195312 1.914062 -4.28125 2.3125 -4.28125 C 2.71875 -4.28125 3.0625 -4.203125 3.34375 -4.046875 C 3.632812 -3.890625 3.835938 -3.648438 3.953125 -3.328125 L 3.34375 -2.953125 L 3.265625 -2.953125 C 3.179688 -3.171875 3.0625 -3.328125 2.90625 -3.421875 C 2.75 -3.515625 2.550781 -3.5625 2.3125 -3.5625 C 1.957031 -3.5625 1.679688 -3.445312 1.484375 -3.21875 C 1.285156 -2.988281 1.1875 -2.617188 1.1875 -2.109375 C 1.1875 -1.609375 1.285156 -1.238281 1.484375 -1 C 1.679688 -0.769531 1.957031 -0.65625 2.3125 -0.65625 C 2.863281 -0.65625 3.195312 -0.925781 3.3125 -1.46875 L 3.390625 -1.46875 L 4 -1.140625 C 3.882812 -0.742188 3.6875 -0.441406 3.40625 -0.234375 C 3.132812 -0.0351562 2.769531 0.0625 2.3125 0.0625 Z M 2.3125 0.0625 "/></g></g><g transform="translate(13.216628, 27.219514)"><g><path d="M 1.875 0.0625 C 1.582031 0.0625 1.320312 0.0234375 1.09375 -0.046875 C 0.863281 -0.117188 0.671875 -0.210938 0.515625 -0.328125 C 0.367188 -0.453125 0.253906 -0.582031 0.171875 -0.71875 L 0.625 -1.28125 L 0.703125 -1.28125 C 0.828125 -1.09375 0.988281 -0.941406 1.1875 -0.828125 C 1.382812 -0.710938 1.613281 -0.65625 1.875 -0.65625 C 2.09375 -0.65625 2.257812 -0.703125 2.375 -0.796875 C 2.488281 -0.898438 2.546875 -1.03125 2.546875 -1.1875 C 2.546875 -1.289062 2.523438 -1.375 2.484375 -1.4375 C 2.453125 -1.507812 2.394531 -1.566406 2.3125 -1.609375 C 2.226562 -1.660156 2.113281 -1.707031 1.96875 -1.75 L 1.421875 -1.875 C 1.046875 -1.957031 0.765625 -2.097656 0.578125 -2.296875 C 0.390625 -2.503906 0.296875 -2.765625 0.296875 -3.078125 C 0.296875 -3.316406 0.351562 -3.523438 0.46875 -3.703125 C 0.59375 -3.890625 0.769531 -4.03125 1 -4.125 C 1.226562 -4.226562 1.5 -4.28125 1.8125 -4.28125 C 2.144531 -4.28125 2.425781 -4.238281 2.65625 -4.15625 C 2.882812 -4.070312 3.082031 -3.941406 3.25 -3.765625 L 2.828125 -3.203125 L 2.765625 -3.203125 C 2.640625 -3.328125 2.5 -3.421875 2.34375 -3.484375 C 2.1875 -3.546875 2.007812 -3.578125 1.8125 -3.578125 C 1.582031 -3.578125 1.40625 -3.535156 1.28125 -3.453125 C 1.164062 -3.367188 1.109375 -3.253906 1.109375 -3.109375 C 1.109375 -2.984375 1.148438 -2.878906 1.234375 -2.796875 C 1.328125 -2.722656 1.472656 -2.660156 1.671875 -2.609375 L 2.234375 -2.5 C 2.640625 -2.414062 2.9375 -2.269531 3.125 -2.0625 C 3.3125 -1.851562 3.40625 -1.582031 3.40625 -1.25 C 3.40625 -0.976562 3.347656 -0.742188 3.234375 -0.546875 C 3.117188 -0.359375 2.945312 -0.207031 2.71875 -0.09375 C 2.488281 0.0078125 2.207031 0.0625 1.875 0.0625 Z M 1.875 0.0625 "/></g></g><g transform="translate(16.847894, 27.219514)"><g><path d="M 2.515625 0 L 1.5 0 L 0.078125 -4.234375 L 0.96875 -4.234375 L 1.984375 -1.078125 L 2.0625 -1.078125 L 3.078125 -4.234375 L 3.9375 -4.234375 Z M 2.515625 0 "/></g></g><g transform="translate(20.860789, 27.219514)"><g/></g><g transform="translate(22.257207, 27.219514)"><g><path d="M 2.078125 -4.234375 C 2.753906 -4.234375 3.273438 -4.050781 3.640625 -3.6875 C 4.003906 -3.332031 4.1875 -2.804688 4.1875 -2.109375 C 4.1875 -1.410156 4.003906 -0.882812 3.640625 -0.53125 C 3.273438 -0.175781 2.753906 0 2.078125 0 L 0.546875 0 L 0.546875 -4.234375 Z M 2.015625 -0.703125 C 2.453125 -0.703125 2.78125 -0.8125 3 -1.03125 C 3.21875 -1.257812 3.328125 -1.617188 3.328125 -2.109375 C 3.328125 -2.609375 3.21875 -2.96875 3 -3.1875 C 2.78125 -3.414062 2.453125 -3.53125 2.015625 -3.53125 L 1.390625 -3.53125 L 1.390625 -0.703125 Z M 2.015625 -0.703125 "/></g></g><g transform="translate(26.77605, 27.219514)"><g><path d="M 1.859375 0.0625 C 1.546875 0.0625 1.269531 0 1.03125 -0.125 C 0.789062 -0.257812 0.601562 -0.445312 0.46875 -0.6875 C 0.34375 -0.9375 0.28125 -1.238281 0.28125 -1.59375 C 0.28125 -1.945312 0.34375 -2.242188 0.46875 -2.484375 C 0.601562 -2.734375 0.789062 -2.921875 1.03125 -3.046875 C 1.269531 -3.179688 1.546875 -3.25 1.859375 -3.25 C 2.171875 -3.25 2.441406 -3.179688 2.671875 -3.046875 C 2.910156 -2.921875 3.09375 -2.734375 3.21875 -2.484375 C 3.351562 -2.242188 3.421875 -1.945312 3.421875 -1.59375 C 3.421875 -1.238281 3.351562 -0.9375 3.21875 -0.6875 C 3.09375 -0.445312 2.910156 -0.257812 2.671875 -0.125 C 2.441406 0 2.171875 0.0625 1.859375 0.0625 Z M 1.859375 -0.625 C 2.347656 -0.625 2.59375 -0.945312 2.59375 -1.59375 C 2.59375 -1.925781 2.53125 -2.171875 2.40625 -2.328125 C 2.28125 -2.492188 2.097656 -2.578125 1.859375 -2.578125 C 1.359375 -2.578125 1.109375 -2.25 1.109375 -1.59375 C 1.109375 -0.945312 1.359375 -0.625 1.859375 -0.625 Z M 1.859375 -0.625 "/></g></g><g transform="translate(30.482485, 27.219514)"><g><path d="M 1.71875 0 L 0.875 0 L 0.109375 -3.1875 L 0.859375 -3.1875 L 1.328125 -1.03125 L 1.390625 -1.03125 L 2 -3.1875 L 2.6875 -3.1875 L 3.3125 -1.03125 L 3.375 -1.03125 L 3.828125 -3.1875 L 4.546875 -3.1875 L 3.796875 0 L 2.96875 0 L 2.359375 -2.171875 L 2.296875 -2.171875 Z M 1.71875 0 "/></g></g><g transform="translate(35.145886, 27.219514)"><g><path d="M 0.453125 0 L 0.453125 -3.1875 L 1.234375 -3.1875 L 1.234375 -2.71875 L 1.296875 -2.703125 C 1.492188 -3.066406 1.8125 -3.25 2.25 -3.25 C 2.625 -3.25 2.894531 -3.148438 3.0625 -2.953125 C 3.238281 -2.753906 3.328125 -2.460938 3.328125 -2.078125 L 3.328125 0 L 2.53125 0 L 2.53125 -1.96875 C 2.53125 -2.1875 2.484375 -2.34375 2.390625 -2.4375 C 2.304688 -2.53125 2.171875 -2.578125 1.984375 -2.578125 C 1.753906 -2.578125 1.578125 -2.5 1.453125 -2.34375 C 1.328125 -2.195312 1.265625 -1.96875 1.265625 -1.65625 L 1.265625 0 Z M 0.453125 0 "/></g></g><g transform="translate(38.881232, 27.219514)"><g><path d="M 1.328125 0.0625 C 1.035156 0.0625 0.8125 -0.015625 0.65625 -0.171875 C 0.507812 -0.328125 0.4375 -0.5625 0.4375 -0.875 L 0.4375 -4.46875 L 1.234375 -4.46875 L 1.234375 -0.90625 C 1.234375 -0.71875 1.316406 -0.625 1.484375 -0.625 C 1.523438 -0.625 1.570312 -0.628906 1.625 -0.640625 L 1.671875 -0.625 L 1.75 -0.015625 C 1.695312 0.00390625 1.632812 0.0195312 1.5625 0.03125 C 1.488281 0.0507812 1.410156 0.0625 1.328125 0.0625 Z M 1.328125 0.0625 "/></g></g><g transform="translate(40.714211, 27.219514)"><g><path d="M 1.859375 0.0625 C 1.546875 0.0625 1.269531 0 1.03125 -0.125 C 0.789062 -0.257812 0.601562 -0.445312 0.46875 -0.6875 C 0.34375 -0.9375 0.28125 -1.238281 0.28125 -1.59375 C 0.28125 -1.945312 0.34375 -2.242188 0.46875 -2.484375 C 0.601562 -2.734375 0.789062 -2.921875 1.03125 -3.046875 C 1.269531 -3.179688 1.546875 -3.25 1.859375 -3.25 C 2.171875 -3.25 2.441406 -3.179688 2.671875 -3.046875 C 2.910156 -2.921875 3.09375 -2.734375 3.21875 -2.484375 C 3.351562 -2.242188 3.421875 -1.945312 3.421875 -1.59375 C 3.421875 -1.238281 3.351562 -0.9375 3.21875 -0.6875 C 3.09375 -0.445312 2.910156 -0.257812 2.671875 -0.125 C 2.441406 0 2.171875 0.0625 1.859375 0.0625 Z M 1.859375 -0.625 C 2.347656 -0.625 2.59375 -0.945312 2.59375 -1.59375 C 2.59375 -1.925781 2.53125 -2.171875 2.40625 -2.328125 C 2.28125 -2.492188 2.097656 -2.578125 1.859375 -2.578125 C 1.359375 -2.578125 1.109375 -2.25 1.109375 -1.59375 C 1.109375 -0.945312 1.359375 -0.625 1.859375 -0.625 Z M 1.859375 -0.625 "/></g></g><g transform="translate(44.420646, 27.219514)"><g><path d="M 1.25 0.0625 C 1.039062 0.0625 0.859375 0.0234375 0.703125 -0.046875 C 0.554688 -0.128906 0.441406 -0.238281 0.359375 -0.375 C 0.285156 -0.519531 0.25 -0.695312 0.25 -0.90625 C 0.25 -1.09375 0.285156 -1.25 0.359375 -1.375 C 0.441406 -1.507812 0.566406 -1.617188 0.734375 -1.703125 C 0.910156 -1.785156 1.132812 -1.847656 1.40625 -1.890625 C 1.59375 -1.921875 1.734375 -1.953125 1.828125 -1.984375 C 1.929688 -2.023438 2 -2.066406 2.03125 -2.109375 C 2.070312 -2.160156 2.09375 -2.222656 2.09375 -2.296875 C 2.09375 -2.390625 2.054688 -2.460938 1.984375 -2.515625 C 1.910156 -2.578125 1.789062 -2.609375 1.625 -2.609375 C 1.445312 -2.609375 1.28125 -2.566406 1.125 -2.484375 C 0.96875 -2.410156 0.828125 -2.304688 0.703125 -2.171875 L 0.65625 -2.171875 L 0.3125 -2.6875 C 0.476562 -2.863281 0.675781 -3 0.90625 -3.09375 C 1.144531 -3.195312 1.398438 -3.25 1.671875 -3.25 C 2.085938 -3.25 2.390625 -3.160156 2.578125 -2.984375 C 2.773438 -2.804688 2.875 -2.550781 2.875 -2.21875 L 2.875 -0.828125 C 2.875 -0.691406 2.9375 -0.625 3.0625 -0.625 C 3.101562 -0.625 3.148438 -0.628906 3.203125 -0.640625 L 3.234375 -0.640625 L 3.296875 -0.078125 C 3.253906 -0.046875 3.191406 -0.0195312 3.109375 0 C 3.035156 0.0078125 2.953125 0.015625 2.859375 0.015625 C 2.660156 0.015625 2.507812 -0.0195312 2.40625 -0.09375 C 2.300781 -0.164062 2.222656 -0.28125 2.171875 -0.4375 L 2.109375 -0.4375 C 1.953125 -0.101562 1.664062 0.0625 1.25 0.0625 Z M 1.5 -0.53125 C 1.6875 -0.53125 1.832031 -0.59375 1.9375 -0.71875 C 2.050781 -0.84375 2.109375 -1.019531 2.109375 -1.25 L 2.109375 -1.5625 L 2.046875 -1.578125 C 2.003906 -1.535156 1.941406 -1.5 1.859375 -1.46875 C 1.785156 -1.445312 1.675781 -1.425781 1.53125 -1.40625 C 1.351562 -1.375 1.222656 -1.320312 1.140625 -1.25 C 1.066406 -1.1875 1.03125 -1.085938 1.03125 -0.953125 C 1.03125 -0.816406 1.070312 -0.710938 1.15625 -0.640625 C 1.238281 -0.566406 1.351562 -0.53125 1.5 -0.53125 Z M 1.5 -0.53125 "/></g></g><g transform="translate(47.783036, 27.219514)"><g><path d="M 1.578125 0.0625 C 1.328125 0.0625 1.101562 0 0.90625 -0.125 C 0.707031 -0.25 0.550781 -0.429688 0.4375 -0.671875 C 0.332031 -0.921875 0.28125 -1.226562 0.28125 -1.59375 C 0.28125 -1.957031 0.335938 -2.265625 0.453125 -2.515625 C 0.566406 -2.765625 0.722656 -2.945312 0.921875 -3.0625 C 1.117188 -3.1875 1.347656 -3.25 1.609375 -3.25 C 1.816406 -3.25 1.988281 -3.210938 2.125 -3.140625 C 2.269531 -3.078125 2.394531 -2.972656 2.5 -2.828125 L 2.5625 -2.84375 L 2.5625 -4.46875 L 3.359375 -4.46875 L 3.359375 0 L 2.5625 0 L 2.5625 -0.40625 L 2.5 -0.421875 C 2.414062 -0.273438 2.296875 -0.15625 2.140625 -0.0625 C 1.984375 0.0195312 1.796875 0.0625 1.578125 0.0625 Z M 1.84375 -0.625 C 2.0625 -0.625 2.234375 -0.703125 2.359375 -0.859375 C 2.492188 -1.023438 2.5625 -1.269531 2.5625 -1.59375 C 2.5625 -1.914062 2.492188 -2.160156 2.359375 -2.328125 C 2.234375 -2.492188 2.0625 -2.578125 1.84375 -2.578125 C 1.601562 -2.578125 1.421875 -2.492188 1.296875 -2.328125 C 1.171875 -2.171875 1.109375 -1.925781 1.109375 -1.59375 C 1.109375 -1.257812 1.171875 -1.015625 1.296875 -0.859375 C 1.421875 -0.703125 1.601562 -0.625 1.84375 -0.625 Z M 1.84375 -0.625 "/></g></g></g></svg>