<svg xmlns="http://www.w3.org/2000/svg" xmlns:xlink="http://www.w3.org/1999/xlink" width="1280" zoomAndPan="magnify" viewBox="0 0 960 540.000001" height="720" preserveAspectRatio="xMidYMid meet" version="1.0"><defs><g/><clipPath id="75befeb7f3"><path d="M 0.886719 136 L 570 136 L 570 412 L 0.886719 412 Z M 0.886719 136 " clip-rule="nonzero"/></clipPath><clipPath id="794cd311c5"><path d="M 416 138 L 959.113281 138 L 959.113281 410 L 416 410 Z M 416 138 " clip-rule="nonzero"/></clipPath></defs><g clip-path="url(#75befeb7f3)"><path stroke-linecap="butt" transform="matrix(0.748614, 0, 0, 0.748614, 13.192158, 169.935318)" fill="none" stroke-linejoin="miter" d="M 44.649239 70.910026 L 44.649239 184.474112 L 105.809166 184.474112 L 105.809166 207.000126 L 17.750559 207.000126 L 17.750559 70.910026 Z M 184.45454 208.956868 C 171.983571 208.956868 160.984072 206.410494 151.456043 201.322965 C 141.933232 196.235436 134.471523 188.460648 129.070915 178.003819 C 123.670307 167.546989 120.972612 154.528133 120.972612 138.952467 C 120.972612 123.376801 123.670307 110.363162 129.070915 99.906333 C 134.471523 89.449504 141.933232 81.674716 151.456043 76.587186 C 160.984072 71.499657 171.983571 68.953284 184.45454 68.953284 C 196.930727 68.953284 207.914572 71.484003 217.411293 76.540225 C 226.902796 81.596446 234.333197 89.371234 239.702497 99.859371 C 245.071797 110.347508 247.753838 123.376801 247.753838 138.952467 C 247.753838 154.528133 245.071797 167.562643 239.702497 178.05078 C 234.333197 188.538917 226.902796 196.308487 217.411293 201.369927 C 207.914572 206.426148 196.930727 208.956868 184.45454 208.956868 Z M 184.45454 185.590759 C 196.001927 185.590759 204.809874 181.880777 210.894037 174.466029 C 216.972983 167.051281 220.015064 155.211688 220.015064 138.952467 C 220.015064 122.693245 216.972983 110.843216 210.894037 103.39716 C 204.809874 95.945887 196.001927 92.225468 184.45454 92.225468 C 172.849755 92.225468 163.994846 95.945887 157.879375 103.39716 C 151.769122 110.843216 148.711386 122.693245 148.711386 138.952467 C 148.711386 155.211688 151.769122 167.051281 157.879375 174.466029 C 163.994846 181.880777 172.849755 185.590759 184.45454 185.590759 Z M 332.916467 208.956868 C 320.382882 208.956868 309.336422 206.347878 299.777085 201.135118 C 290.222966 195.922357 282.745603 188.090171 277.344995 177.633342 C 271.944387 167.176513 269.246692 154.282888 269.246692 138.952467 C 269.246692 123.627264 271.944387 110.733638 277.344995 100.276809 C 282.745603 89.81998 290.222966 81.987794 299.777085 76.775034 C 309.336422 71.562273 320.382882 68.953284 332.916467 68.953284 C 346.013593 68.953284 357.133106 71.515311 366.290658 76.634148 C 375.442993 81.752985 381.975902 89.559081 385.884168 100.042 L 366.243696 112.053787 L 363.916478 111.959863 C 360.999628 104.884284 357.0444 99.812409 352.045577 96.73902 C 347.051971 93.66563 340.675601 92.131545 332.916467 92.131545 C 321.624761 92.131545 312.811596 95.872835 306.482187 103.350199 C 300.152779 110.827562 296.985466 122.693245 296.985466 138.952467 C 296.985466 155.149072 300.152779 166.988666 306.482187 174.466029 C 312.811596 181.943392 321.624761 185.684683 332.916467 185.684683 C 350.605415 185.684683 361.43272 177.090672 365.403602 159.897433 L 367.73082 159.897433 L 387.559139 170.22903 C 383.833502 183.138309 377.472786 192.81766 368.476991 199.272299 C 359.475978 205.726939 347.625949 208.956868 332.916467 208.956868 Z M 522.616079 207.000126 L 494.318981 207.000126 L 484.076089 175.629638 L 431.948483 175.629638 L 421.710809 207.000126 L 394.065958 207.000126 L 441.074728 70.910026 L 475.60731 70.910026 Z M 456.713009 99.301047 L 439.211909 153.009701 L 476.630034 153.009701 L 459.040228 99.301047 Z M 569.243936 70.910026 L 569.243936 184.474112 L 630.398645 184.474112 L 630.398645 207.000126 L 542.340038 207.000126 L 542.340038 70.910026 Z M 569.243936 70.910026 " stroke="#ffffff" stroke-width="20.01762" stroke-opacity="1" stroke-miterlimit="4"/></g><g clip-path="url(#794cd311c5)"><path stroke-linecap="butt" transform="matrix(0.748614, 0, 0, 0.748614, 13.192158, 169.935318)" fill="none" stroke-linejoin="miter" d="M 679.43199 147.238617 L 679.43199 184.474112 L 744.40626 184.474112 L 744.40626 207.000126 L 652.528092 207.000126 L 652.528092 70.910026 L 742.913918 70.910026 L 742.913918 93.436039 L 679.43199 93.436039 L 679.43199 125.270927 L 734.909539 125.270927 L 734.909539 147.238617 Z M 794.196212 207.000126 L 769.530827 207.000126 L 769.530827 70.910026 L 804.715656 70.910026 L 839.159533 170.975201 L 841.111057 170.975201 L 875.367087 70.910026 L 909.71704 70.910026 L 909.71704 207.000126 L 884.21156 207.000126 L 884.21156 117.0787 L 881.884342 116.708224 L 850.419931 207.000126 L 827.987841 207.000126 L 796.52343 116.708224 L 794.196212 117.0787 Z M 1058.085043 207.000126 L 1029.782727 207.000126 L 1019.545053 175.629638 L 967.417447 175.629638 L 957.179773 207.000126 L 929.529705 207.000126 L 976.538474 70.910026 L 1011.076274 70.910026 Z M 992.176756 99.301047 L 974.675655 153.009701 L 1012.098998 153.009701 L 994.503974 99.301047 Z M 1104.707682 207.000126 L 1077.803785 207.000126 L 1077.803785 70.910026 L 1104.707682 70.910026 Z M 1167.072962 70.910026 L 1167.072962 184.474112 L 1228.227672 184.474112 L 1228.227672 207.000126 L 1140.169065 207.000126 L 1140.169065 70.910026 Z M 1167.072962 70.910026 " stroke="#ffffff" stroke-width="20.01762" stroke-opacity="1" stroke-miterlimit="4"/></g><g fill="#38b6ff" fill-opacity="1"><g transform="translate(13.238946, 324.898343)"><g><path d="M 33.375 -101.875 L 33.375 -16.859375 L 79.171875 -16.859375 L 79.171875 0 L 13.234375 0 L 13.234375 -101.875 Z M 33.375 -101.875 "/></g></g></g><g fill="#38b6ff" fill-opacity="1"><g transform="translate(95.739972, 324.898343)"><g><path d="M 55.546875 1.46875 C 46.203125 1.46875 37.960938 -0.4375 30.828125 -4.25 C 23.703125 -8.0625 18.117188 -13.878906 14.078125 -21.703125 C 10.035156 -29.535156 8.015625 -39.28125 8.015625 -50.9375 C 8.015625 -62.601562 10.035156 -72.347656 14.078125 -80.171875 C 18.117188 -88.003906 23.703125 -93.820312 30.828125 -97.625 C 37.960938 -101.4375 46.203125 -103.34375 55.546875 -103.34375 C 64.878906 -103.34375 73.097656 -101.445312 80.203125 -97.65625 C 87.316406 -93.875 92.878906 -88.054688 96.890625 -80.203125 C 100.910156 -72.359375 102.921875 -62.601562 102.921875 -50.9375 C 102.921875 -39.28125 100.910156 -29.523438 96.890625 -21.671875 C 92.878906 -13.816406 87.316406 -7.992188 80.203125 -4.203125 C 73.097656 -0.421875 64.878906 1.46875 55.546875 1.46875 Z M 55.546875 -16.03125 C 64.179688 -16.03125 70.773438 -18.804688 75.328125 -24.359375 C 79.878906 -29.910156 82.15625 -38.769531 82.15625 -50.9375 C 82.15625 -63.113281 79.878906 -71.988281 75.328125 -77.5625 C 70.773438 -83.132812 64.179688 -85.921875 55.546875 -85.921875 C 46.859375 -85.921875 40.222656 -83.132812 35.640625 -77.5625 C 31.066406 -71.988281 28.78125 -63.113281 28.78125 -50.9375 C 28.78125 -38.769531 31.066406 -29.910156 35.640625 -24.359375 C 40.222656 -18.804688 46.859375 -16.03125 55.546875 -16.03125 Z M 55.546875 -16.03125 "/></g></g></g><g fill="#38b6ff" fill-opacity="1"><g transform="translate(206.740085, 324.898343)"><g><path d="M 55.6875 1.46875 C 46.300781 1.46875 38.03125 -0.484375 30.875 -4.390625 C 23.71875 -8.296875 18.117188 -14.160156 14.078125 -21.984375 C 10.035156 -29.816406 8.015625 -39.46875 8.015625 -50.9375 C 8.015625 -62.414062 10.035156 -72.066406 14.078125 -79.890625 C 18.117188 -87.722656 23.71875 -93.585938 30.875 -97.484375 C 38.03125 -101.390625 46.300781 -103.34375 55.6875 -103.34375 C 65.488281 -103.34375 73.8125 -101.425781 80.65625 -97.59375 C 87.507812 -93.757812 92.398438 -87.914062 95.328125 -80.0625 L 80.625 -71.078125 L 78.890625 -71.15625 C 76.703125 -76.445312 73.738281 -80.242188 70 -82.546875 C 66.257812 -84.847656 61.488281 -86 55.6875 -86 C 47.226562 -86 40.628906 -83.195312 35.890625 -77.59375 C 31.148438 -72 28.78125 -63.113281 28.78125 -50.9375 C 28.78125 -38.8125 31.148438 -29.945312 35.890625 -24.34375 C 40.628906 -18.75 47.226562 -15.953125 55.6875 -15.953125 C 68.925781 -15.953125 77.03125 -22.390625 80 -35.265625 L 81.75 -35.265625 L 96.59375 -27.53125 C 93.800781 -17.863281 89.035156 -10.613281 82.296875 -5.78125 C 75.566406 -0.945312 66.695312 1.46875 55.6875 1.46875 Z M 55.6875 1.46875 "/></g></g></g><g fill="#38b6ff" fill-opacity="1"><g transform="translate(306.66109, 324.898343)"><g><path d="M 97.765625 0 L 76.578125 0 L 68.921875 -23.484375 L 29.890625 -23.484375 L 22.234375 0 L 1.53125 0 L 36.71875 -101.875 L 62.578125 -101.875 Z M 48.4375 -80.625 L 35.328125 -40.421875 L 63.34375 -40.421875 L 50.171875 -80.625 Z M 48.4375 -80.625 "/></g></g></g><g fill="#38b6ff" fill-opacity="1"><g transform="translate(405.954976, 324.898343)"><g><path d="M 33.375 -101.875 L 33.375 -16.859375 L 79.171875 -16.859375 L 79.171875 0 L 13.234375 0 L 13.234375 -101.875 Z M 33.375 -101.875 "/></g></g></g><g fill="#ff66c4" fill-opacity="1"><g transform="translate(488.444854, 324.898343)"><g><path d="M 33.375 -44.734375 L 33.375 -16.859375 L 82.015625 -16.859375 L 82.015625 0 L 13.234375 0 L 13.234375 -101.875 L 80.90625 -101.875 L 80.90625 -85.015625 L 33.375 -85.015625 L 33.375 -61.1875 L 74.90625 -61.1875 L 74.90625 -44.734375 Z M 33.375 -44.734375 "/></g></g></g><g fill="#ff66c4" fill-opacity="1"><g transform="translate(576.032514, 324.898343)"><g><path d="M 31.703125 0 L 13.234375 0 L 13.234375 -101.875 L 39.578125 -101.875 L 65.359375 -26.96875 L 66.828125 -26.96875 L 92.46875 -101.875 L 118.1875 -101.875 L 118.1875 0 L 99.09375 0 L 99.09375 -67.3125 L 97.359375 -67.59375 L 73.796875 0 L 57 0 L 33.453125 -67.59375 L 31.703125 -67.3125 Z M 31.703125 0 "/></g></g></g><g fill="#ff66c4" fill-opacity="1"><g transform="translate(707.518521, 324.898343)"><g><path d="M 97.765625 0 L 76.578125 0 L 68.921875 -23.484375 L 29.890625 -23.484375 L 22.234375 0 L 1.53125 0 L 36.71875 -101.875 L 62.578125 -101.875 Z M 48.4375 -80.625 L 35.328125 -40.421875 L 63.34375 -40.421875 L 50.171875 -80.625 Z M 48.4375 -80.625 "/></g></g></g><g fill="#ff66c4" fill-opacity="1"><g transform="translate(806.812407, 324.898343)"><g><path d="M 33.375 0 L 13.234375 0 L 13.234375 -101.875 L 33.375 -101.875 Z M 33.375 0 "/></g></g></g><g fill="#ff66c4" fill-opacity="1"><g transform="translate(853.497954, 324.898343)"><g><path d="M 33.375 -101.875 L 33.375 -16.859375 L 79.171875 -16.859375 L 79.171875 0 L 13.234375 0 L 13.234375 -101.875 Z M 33.375 -101.875 "/></g></g></g></svg>