<svg xmlns="http://www.w3.org/2000/svg" xmlns:xlink="http://www.w3.org/1999/xlink" width="1233" zoomAndPan="magnify" viewBox="0 0 924.75 172.499995" height="230" preserveAspectRatio="xMidYMid meet" version="1.0"><defs><g/><clipPath id="ad2cd56ba7"><path d="M 1.210938 0 L 553 0 L 553 172 L 1.210938 172 Z M 1.210938 0 " clip-rule="nonzero"/></clipPath><clipPath id="e6e4829c8b"><path d="M 400 0 L 923.289062 0 L 923.289062 172 L 400 172 Z M 400 0 " clip-rule="nonzero"/></clipPath></defs><g clip-path="url(#ad2cd56ba7)"><path stroke-linecap="butt" transform="matrix(0.748034, 0, 0, 0.748034, 1.211719, -12.716586)" fill="none" stroke-linejoin="miter" d="M 44.21901 69.173189 L 44.21901 181.681584 L 104.810094 181.681584 L 104.810094 204.000493 L 17.571048 204.000493 L 17.571048 69.173189 Z M 182.733059 205.937862 C 170.37254 205.937862 159.474187 203.415627 150.037999 198.376378 C 140.601811 193.331908 133.207433 185.634653 127.860085 175.274167 C 122.512738 164.913682 119.839064 152.015296 119.839064 136.58423 C 119.839064 121.153165 122.512738 108.26 127.860085 97.899515 C 133.207433 87.53903 140.601811 79.836552 150.037999 74.797304 C 159.474187 69.758056 170.37254 67.235821 182.733059 67.235821 C 195.088355 67.235821 205.971042 69.74239 215.375898 74.750306 C 224.785976 79.763444 232.149023 87.460699 237.465038 97.852517 C 242.781053 108.244334 245.444282 121.153165 245.444282 136.58423 C 245.444282 152.015296 242.781053 164.929348 237.465038 175.321166 C 232.149023 185.707761 224.785976 193.410239 215.375898 198.418155 C 205.971042 203.431293 195.088355 205.937862 182.733059 205.937862 Z M 182.733059 182.788652 C 194.16928 182.788652 202.895273 179.117573 208.921483 171.770193 C 214.947693 164.422812 217.960798 152.694158 217.960798 136.58423 C 217.960798 120.479524 214.947693 108.735204 208.921483 101.356491 C 202.895273 93.977779 194.16928 90.291033 182.733059 90.291033 C 171.234173 90.291033 162.45596 93.977779 156.40364 101.356491 C 150.346098 108.735204 147.317327 120.479524 147.317327 136.58423 C 147.317327 152.694158 150.346098 164.422812 156.40364 171.770193 C 162.45596 179.117573 171.234173 182.788652 182.733059 182.788652 Z M 329.81644 205.937862 C 317.398479 205.937862 306.453128 203.352962 296.985608 198.188386 C 287.518088 193.023809 280.108043 185.263889 274.760696 174.903404 C 269.413349 164.542919 266.739675 151.769861 266.739675 136.58423 C 266.739675 121.398599 269.413349 108.625541 274.760696 98.270278 C 280.108043 87.909793 287.518088 80.144651 296.985608 74.980074 C 306.453128 69.815498 317.398479 67.235821 329.81644 67.235821 C 342.787935 67.235821 353.811617 69.773722 362.877041 74.844302 C 371.947688 79.914882 378.417769 87.648692 382.292507 98.035287 L 362.830043 109.936268 L 360.527133 109.842272 C 357.639356 102.834323 353.71762 97.805519 348.767146 94.761082 C 343.821895 91.721867 337.503252 90.197037 329.81644 90.197037 C 318.625654 90.197037 309.89966 93.90467 303.628016 101.309493 C 297.356371 108.719538 294.217938 120.479524 294.217938 136.58423 C 294.217938 152.631494 297.356371 164.360148 303.628016 171.770193 C 309.89966 179.175015 318.625654 182.882649 329.81644 182.882649 C 347.341535 182.882649 358.067562 174.365536 362.004964 157.336533 L 364.307874 157.336533 L 383.953109 167.57169 C 380.261142 180.360414 373.958165 189.953262 365.044179 196.345013 C 356.130193 202.741986 344.385873 205.937862 329.81644 205.937862 Z M 517.756897 204.000493 L 489.719878 204.000493 L 479.578717 172.919037 L 427.932951 172.919037 L 417.791791 204.000493 L 390.39708 204.000493 L 436.972266 69.173189 L 471.186933 69.173189 Z M 452.465996 97.298983 L 435.128893 150.511354 L 472.200005 150.511354 L 454.768906 97.298983 Z M 563.950875 69.173189 L 563.950875 181.681584 L 624.541959 181.681584 L 624.541959 204.000493 L 537.302913 204.000493 L 537.302913 69.173189 Z M 563.950875 69.173189 " stroke="#ffffff" stroke-width="19.832085" stroke-opacity="1" stroke-miterlimit="4"/></g><g clip-path="url(#e6e4829c8b)"><path stroke-linecap="butt" transform="matrix(0.748034, 0, 0, 0.748034, 1.211719, -12.716586)" fill="none" stroke-linejoin="miter" d="M 673.127622 144.793244 L 673.127622 181.681584 L 737.499447 181.681584 L 737.499447 204.000493 L 646.474438 204.000493 L 646.474438 69.173189 L 736.021616 69.173189 L 736.021616 91.492098 L 673.127622 91.492098 L 673.127622 123.027869 L 728.08937 123.027869 L 728.08937 144.793244 Z M 786.831859 204.000493 L 762.392811 204.000493 L 762.392811 69.173189 L 797.249786 69.173189 L 831.375679 168.307994 L 833.307826 168.307994 L 867.245726 69.173189 L 901.277623 69.173189 L 901.277623 204.000493 L 876.008274 204.000493 L 876.008274 114.912852 L 873.705364 114.547311 L 842.529911 204.000493 L 820.304999 204.000493 L 789.134769 114.547311 L 786.831859 114.912852 Z M 1048.267008 204.000493 L 1020.235211 204.000493 L 1010.088828 172.919037 L 958.443063 172.919037 L 948.301902 204.000493 L 920.912414 204.000493 L 967.482377 69.173189 L 1001.697044 69.173189 Z M 982.976107 97.298983 L 965.639004 150.511354 L 1002.710116 150.511354 L 985.279017 97.298983 Z M 1094.466208 204.000493 L 1067.813024 204.000493 L 1067.813024 69.173189 L 1094.466208 69.173189 Z M 1156.247913 69.173189 L 1156.247913 181.681584 L 1216.838997 181.681584 L 1216.838997 204.000493 L 1129.599951 204.000493 L 1129.599951 69.173189 Z M 1156.247913 69.173189 " stroke="#ffffff" stroke-width="19.832085" stroke-opacity="1" stroke-miterlimit="4"/></g><g fill="#38b6ff" fill-opacity="1"><g transform="translate(1.246783, 139.882444)"><g><path d="M 33.046875 -100.859375 L 33.046875 -16.6875 L 78.359375 -16.6875 L 78.359375 0 L 13.109375 0 L 13.109375 -100.859375 Z M 33.046875 -100.859375 "/></g></g></g><g fill="#38b6ff" fill-opacity="1"><g transform="translate(82.920421, 139.882444)"><g><path d="M 54.984375 1.453125 C 45.734375 1.453125 37.578125 -0.429688 30.515625 -4.203125 C 23.460938 -7.972656 17.9375 -13.734375 13.9375 -21.484375 C 9.9375 -29.234375 7.9375 -38.878906 7.9375 -50.421875 C 7.9375 -61.972656 9.9375 -71.617188 13.9375 -79.359375 C 17.9375 -87.109375 23.460938 -92.867188 30.515625 -96.640625 C 37.578125 -100.421875 45.734375 -102.3125 54.984375 -102.3125 C 64.222656 -102.3125 72.359375 -100.4375 79.390625 -96.6875 C 86.429688 -92.9375 91.941406 -87.175781 95.921875 -79.40625 C 99.898438 -71.632812 101.890625 -61.972656 101.890625 -50.421875 C 101.890625 -38.878906 99.898438 -29.222656 95.921875 -21.453125 C 91.941406 -13.679688 86.429688 -7.921875 79.390625 -4.171875 C 72.359375 -0.421875 64.222656 1.453125 54.984375 1.453125 Z M 54.984375 -15.859375 C 63.535156 -15.859375 70.0625 -18.609375 74.5625 -24.109375 C 79.070312 -29.609375 81.328125 -38.378906 81.328125 -50.421875 C 81.328125 -62.472656 79.070312 -71.257812 74.5625 -76.78125 C 70.0625 -82.300781 63.535156 -85.0625 54.984375 -85.0625 C 46.378906 -85.0625 39.8125 -82.300781 35.28125 -76.78125 C 30.75 -71.257812 28.484375 -62.472656 28.484375 -50.421875 C 28.484375 -38.378906 30.75 -29.609375 35.28125 -24.109375 C 39.8125 -18.609375 46.378906 -15.859375 54.984375 -15.859375 Z M 54.984375 -15.859375 "/></g></g></g><g fill="#38b6ff" fill-opacity="1"><g transform="translate(192.807341, 139.882444)"><g><path d="M 55.125 1.453125 C 45.832031 1.453125 37.644531 -0.476562 30.5625 -4.34375 C 23.476562 -8.207031 17.9375 -14.015625 13.9375 -21.765625 C 9.9375 -29.515625 7.9375 -39.066406 7.9375 -50.421875 C 7.9375 -61.785156 9.9375 -71.34375 13.9375 -79.09375 C 17.9375 -86.84375 23.476562 -92.648438 30.5625 -96.515625 C 37.644531 -100.378906 45.832031 -102.3125 55.125 -102.3125 C 64.820312 -102.3125 73.0625 -100.410156 79.84375 -96.609375 C 86.632812 -92.816406 91.476562 -87.035156 94.375 -79.265625 L 79.8125 -70.359375 L 78.09375 -70.4375 C 75.925781 -75.675781 72.988281 -79.429688 69.28125 -81.703125 C 65.582031 -83.984375 60.863281 -85.125 55.125 -85.125 C 46.75 -85.125 40.210938 -82.351562 35.515625 -76.8125 C 30.828125 -71.269531 28.484375 -62.472656 28.484375 -50.421875 C 28.484375 -38.421875 30.828125 -29.648438 35.515625 -24.109375 C 40.210938 -18.566406 46.75 -15.796875 55.125 -15.796875 C 68.226562 -15.796875 76.25 -22.164062 79.1875 -34.90625 L 80.921875 -34.90625 L 95.609375 -27.25 C 92.847656 -17.6875 88.132812 -10.507812 81.46875 -5.71875 C 74.800781 -0.9375 66.019531 1.453125 55.125 1.453125 Z M 55.125 1.453125 "/></g></g></g><g fill="#38b6ff" fill-opacity="1"><g transform="translate(291.726269, 139.882444)"><g><path d="M 96.78125 0 L 75.8125 0 L 68.21875 -23.25 L 29.59375 -23.25 L 22 0 L 1.515625 0 L 36.359375 -100.859375 L 61.953125 -100.859375 Z M 47.9375 -79.8125 L 34.96875 -40.015625 L 62.703125 -40.015625 L 49.671875 -79.8125 Z M 47.9375 -79.8125 "/></g></g></g><g fill="#38b6ff" fill-opacity="1"><g transform="translate(390.024361, 139.882444)"><g><path d="M 33.046875 -100.859375 L 33.046875 -16.6875 L 78.359375 -16.6875 L 78.359375 0 L 13.109375 0 L 13.109375 -100.859375 Z M 33.046875 -100.859375 "/></g></g></g><g fill="#ff66c4" fill-opacity="1"><g transform="translate(471.690333, 139.882444)"><g><path d="M 33.046875 -44.28125 L 33.046875 -16.6875 L 81.203125 -16.6875 L 81.203125 0 L 13.109375 0 L 13.109375 -100.859375 L 80.09375 -100.859375 L 80.09375 -84.15625 L 33.046875 -84.15625 L 33.046875 -60.5625 L 74.15625 -60.5625 L 74.15625 -44.28125 Z M 33.046875 -44.28125 "/></g></g></g><g fill="#ff66c4" fill-opacity="1"><g transform="translate(558.399599, 139.882444)"><g><path d="M 31.390625 0 L 13.109375 0 L 13.109375 -100.859375 L 39.1875 -100.859375 L 64.703125 -26.703125 L 66.15625 -26.703125 L 91.546875 -100.859375 L 117 -100.859375 L 117 0 L 98.09375 0 L 98.09375 -66.640625 L 96.375 -66.921875 L 73.0625 0 L 56.4375 0 L 33.109375 -66.921875 L 31.390625 -66.640625 Z M 31.390625 0 "/></g></g></g><g fill="#ff66c4" fill-opacity="1"><g transform="translate(688.566952, 139.882444)"><g><path d="M 96.78125 0 L 75.8125 0 L 68.21875 -23.25 L 29.59375 -23.25 L 22 0 L 1.515625 0 L 36.359375 -100.859375 L 61.953125 -100.859375 Z M 47.9375 -79.8125 L 34.96875 -40.015625 L 62.703125 -40.015625 L 49.671875 -79.8125 Z M 47.9375 -79.8125 "/></g></g></g><g fill="#ff66c4" fill-opacity="1"><g transform="translate(786.865044, 139.882444)"><g><path d="M 33.046875 0 L 13.109375 0 L 13.109375 -100.859375 L 33.046875 -100.859375 Z M 33.046875 0 "/></g></g></g><g fill="#ff66c4" fill-opacity="1"><g transform="translate(833.082379, 139.882444)"><g><path d="M 33.046875 -100.859375 L 33.046875 -16.6875 L 78.359375 -16.6875 L 78.359375 0 L 13.109375 0 L 13.109375 -100.859375 Z M 33.046875 -100.859375 "/></g></g></g></svg>